G75*
%MOIN*%
%OFA0B0*%
%FSLAX25Y25*%
%IPPOS*%
%LPD*%
%AMOC8*
5,1,8,0,0,1.08239X$1,22.5*
%
%ADD10C,0.00000*%
%ADD11C,0.00800*%
%ADD12C,0.00900*%
%ADD13C,0.01680*%
%ADD14R,0.03600X0.04737*%
%ADD15R,0.02800X0.04737*%
%ADD16C,0.00771*%
%ADD17R,0.04934X0.03162*%
%ADD18C,0.07887*%
D10*
X0003300Y0003800D02*
X0003300Y0074761D01*
X0058001Y0074761D01*
X0058001Y0003800D01*
X0003300Y0003800D01*
D11*
X0007633Y0068200D02*
X0009033Y0068200D01*
X0009033Y0070533D01*
X0008333Y0070533D01*
X0006700Y0071467D02*
X0006702Y0071528D01*
X0006708Y0071589D01*
X0006718Y0071649D01*
X0006732Y0071708D01*
X0006750Y0071767D01*
X0006771Y0071824D01*
X0006796Y0071880D01*
X0006825Y0071933D01*
X0006857Y0071985D01*
X0006893Y0072035D01*
X0006932Y0072082D01*
X0006973Y0072127D01*
X0007018Y0072168D01*
X0007065Y0072207D01*
X0007115Y0072243D01*
X0007166Y0072275D01*
X0007220Y0072304D01*
X0007276Y0072329D01*
X0007333Y0072350D01*
X0007392Y0072368D01*
X0007451Y0072382D01*
X0007511Y0072392D01*
X0007572Y0072398D01*
X0007633Y0072400D01*
X0009033Y0072400D01*
X0011297Y0072400D02*
X0011297Y0068900D01*
X0011299Y0068850D01*
X0011304Y0068800D01*
X0011313Y0068751D01*
X0011325Y0068703D01*
X0011341Y0068655D01*
X0011360Y0068609D01*
X0011383Y0068565D01*
X0011408Y0068522D01*
X0011437Y0068481D01*
X0011468Y0068442D01*
X0011502Y0068405D01*
X0011539Y0068371D01*
X0011578Y0068340D01*
X0011619Y0068311D01*
X0011662Y0068286D01*
X0011706Y0068263D01*
X0011752Y0068244D01*
X0011800Y0068228D01*
X0011848Y0068216D01*
X0011897Y0068207D01*
X0011947Y0068202D01*
X0011997Y0068200D01*
X0013683Y0069133D02*
X0013683Y0070067D01*
X0013684Y0070067D02*
X0013686Y0070127D01*
X0013692Y0070186D01*
X0013701Y0070245D01*
X0013715Y0070304D01*
X0013732Y0070361D01*
X0013752Y0070417D01*
X0013776Y0070472D01*
X0013804Y0070525D01*
X0013835Y0070576D01*
X0013869Y0070625D01*
X0013907Y0070672D01*
X0013947Y0070716D01*
X0013990Y0070758D01*
X0014035Y0070796D01*
X0014083Y0070832D01*
X0014133Y0070865D01*
X0014185Y0070894D01*
X0014239Y0070920D01*
X0014295Y0070943D01*
X0014352Y0070961D01*
X0014409Y0070977D01*
X0014468Y0070988D01*
X0014527Y0070996D01*
X0014587Y0071000D01*
X0014647Y0071000D01*
X0014707Y0070996D01*
X0014766Y0070988D01*
X0014825Y0070977D01*
X0014882Y0070961D01*
X0014939Y0070943D01*
X0014995Y0070920D01*
X0015049Y0070894D01*
X0015101Y0070865D01*
X0015151Y0070832D01*
X0015199Y0070796D01*
X0015244Y0070758D01*
X0015287Y0070716D01*
X0015327Y0070672D01*
X0015365Y0070625D01*
X0015399Y0070576D01*
X0015430Y0070525D01*
X0015458Y0070472D01*
X0015482Y0070417D01*
X0015502Y0070361D01*
X0015519Y0070304D01*
X0015533Y0070245D01*
X0015542Y0070186D01*
X0015548Y0070127D01*
X0015550Y0070067D01*
X0015550Y0069133D01*
X0015548Y0069073D01*
X0015542Y0069014D01*
X0015533Y0068955D01*
X0015519Y0068896D01*
X0015502Y0068839D01*
X0015482Y0068783D01*
X0015458Y0068728D01*
X0015430Y0068675D01*
X0015399Y0068624D01*
X0015365Y0068575D01*
X0015327Y0068528D01*
X0015287Y0068484D01*
X0015244Y0068442D01*
X0015199Y0068404D01*
X0015151Y0068368D01*
X0015101Y0068335D01*
X0015049Y0068306D01*
X0014995Y0068280D01*
X0014939Y0068257D01*
X0014882Y0068239D01*
X0014825Y0068223D01*
X0014766Y0068212D01*
X0014707Y0068204D01*
X0014647Y0068200D01*
X0014587Y0068200D01*
X0014527Y0068204D01*
X0014468Y0068212D01*
X0014409Y0068223D01*
X0014352Y0068239D01*
X0014295Y0068257D01*
X0014239Y0068280D01*
X0014185Y0068306D01*
X0014133Y0068335D01*
X0014083Y0068368D01*
X0014035Y0068404D01*
X0013990Y0068442D01*
X0013947Y0068484D01*
X0013907Y0068528D01*
X0013869Y0068575D01*
X0013835Y0068624D01*
X0013804Y0068675D01*
X0013776Y0068728D01*
X0013752Y0068783D01*
X0013732Y0068839D01*
X0013715Y0068896D01*
X0013701Y0068955D01*
X0013692Y0069014D01*
X0013686Y0069073D01*
X0013684Y0069133D01*
X0017567Y0071000D02*
X0018267Y0068200D01*
X0018967Y0070067D01*
X0019667Y0068200D01*
X0020367Y0071000D01*
X0007633Y0068200D02*
X0007574Y0068202D01*
X0007516Y0068207D01*
X0007458Y0068217D01*
X0007401Y0068229D01*
X0007345Y0068246D01*
X0007290Y0068266D01*
X0007236Y0068289D01*
X0007184Y0068315D01*
X0007133Y0068345D01*
X0007085Y0068378D01*
X0007038Y0068414D01*
X0006994Y0068453D01*
X0006953Y0068494D01*
X0006914Y0068538D01*
X0006878Y0068585D01*
X0006845Y0068633D01*
X0006815Y0068684D01*
X0006789Y0068736D01*
X0006766Y0068790D01*
X0006746Y0068845D01*
X0006729Y0068901D01*
X0006717Y0068958D01*
X0006707Y0069016D01*
X0006702Y0069074D01*
X0006700Y0069133D01*
X0006700Y0071467D01*
D12*
X0042750Y0072350D02*
X0042750Y0068250D01*
X0044117Y0070072D02*
X0045483Y0072350D01*
X0045483Y0068250D01*
X0044117Y0070072D02*
X0042750Y0072350D01*
X0047856Y0070072D02*
X0047856Y0069161D01*
X0047858Y0069101D01*
X0047864Y0069042D01*
X0047874Y0068983D01*
X0047887Y0068925D01*
X0047904Y0068868D01*
X0047925Y0068812D01*
X0047950Y0068758D01*
X0047978Y0068706D01*
X0048010Y0068655D01*
X0048044Y0068606D01*
X0048082Y0068560D01*
X0048123Y0068517D01*
X0048166Y0068476D01*
X0048212Y0068438D01*
X0048261Y0068404D01*
X0048312Y0068372D01*
X0048364Y0068344D01*
X0048418Y0068319D01*
X0048474Y0068298D01*
X0048531Y0068281D01*
X0048589Y0068268D01*
X0048648Y0068258D01*
X0048707Y0068252D01*
X0048767Y0068250D01*
X0048827Y0068252D01*
X0048886Y0068258D01*
X0048945Y0068268D01*
X0049003Y0068281D01*
X0049060Y0068298D01*
X0049116Y0068319D01*
X0049170Y0068344D01*
X0049223Y0068372D01*
X0049273Y0068404D01*
X0049322Y0068438D01*
X0049368Y0068476D01*
X0049411Y0068517D01*
X0049452Y0068560D01*
X0049490Y0068606D01*
X0049524Y0068655D01*
X0049556Y0068706D01*
X0049584Y0068758D01*
X0049609Y0068812D01*
X0049630Y0068868D01*
X0049647Y0068925D01*
X0049660Y0068983D01*
X0049670Y0069042D01*
X0049676Y0069101D01*
X0049678Y0069161D01*
X0049678Y0070072D01*
X0049676Y0070132D01*
X0049670Y0070191D01*
X0049660Y0070250D01*
X0049647Y0070308D01*
X0049630Y0070365D01*
X0049609Y0070421D01*
X0049584Y0070475D01*
X0049556Y0070528D01*
X0049524Y0070578D01*
X0049490Y0070627D01*
X0049452Y0070673D01*
X0049411Y0070716D01*
X0049368Y0070757D01*
X0049322Y0070795D01*
X0049273Y0070829D01*
X0049223Y0070861D01*
X0049170Y0070889D01*
X0049116Y0070914D01*
X0049060Y0070935D01*
X0049003Y0070952D01*
X0048945Y0070965D01*
X0048886Y0070975D01*
X0048827Y0070981D01*
X0048767Y0070983D01*
X0048707Y0070981D01*
X0048648Y0070975D01*
X0048589Y0070965D01*
X0048531Y0070952D01*
X0048474Y0070935D01*
X0048418Y0070914D01*
X0048364Y0070889D01*
X0048312Y0070861D01*
X0048261Y0070829D01*
X0048212Y0070795D01*
X0048166Y0070757D01*
X0048123Y0070716D01*
X0048082Y0070673D01*
X0048044Y0070627D01*
X0048010Y0070578D01*
X0047978Y0070528D01*
X0047950Y0070475D01*
X0047925Y0070421D01*
X0047904Y0070365D01*
X0047887Y0070308D01*
X0047874Y0070250D01*
X0047864Y0070191D01*
X0047858Y0070132D01*
X0047856Y0070072D01*
X0051718Y0070300D02*
X0051718Y0068933D01*
X0051720Y0068882D01*
X0051726Y0068831D01*
X0051735Y0068781D01*
X0051748Y0068732D01*
X0051765Y0068683D01*
X0051786Y0068637D01*
X0051810Y0068592D01*
X0051837Y0068548D01*
X0051867Y0068507D01*
X0051900Y0068468D01*
X0051936Y0068432D01*
X0051975Y0068399D01*
X0052016Y0068369D01*
X0052060Y0068342D01*
X0052105Y0068318D01*
X0052151Y0068297D01*
X0052200Y0068280D01*
X0052249Y0068267D01*
X0052299Y0068258D01*
X0052350Y0068252D01*
X0052401Y0068250D01*
X0053540Y0068250D01*
X0053540Y0072350D01*
X0053540Y0070983D02*
X0052401Y0070983D01*
X0052350Y0070981D01*
X0052299Y0070975D01*
X0052249Y0070966D01*
X0052200Y0070953D01*
X0052151Y0070936D01*
X0052105Y0070915D01*
X0052060Y0070891D01*
X0052016Y0070864D01*
X0051975Y0070834D01*
X0051936Y0070801D01*
X0051900Y0070765D01*
X0051867Y0070726D01*
X0051837Y0070685D01*
X0051810Y0070642D01*
X0051786Y0070596D01*
X0051765Y0070550D01*
X0051748Y0070501D01*
X0051735Y0070452D01*
X0051726Y0070402D01*
X0051720Y0070351D01*
X0051718Y0070300D01*
D13*
X0035053Y0067828D02*
X0035053Y0064772D01*
X0033933Y0064772D01*
X0033933Y0067828D01*
X0035053Y0067828D01*
X0035053Y0066451D02*
X0033933Y0066451D01*
X0027667Y0067828D02*
X0027667Y0064772D01*
X0026547Y0064772D01*
X0026547Y0067828D01*
X0027667Y0067828D01*
X0027667Y0066451D02*
X0026547Y0066451D01*
D14*
X0030800Y0066300D03*
D15*
X0033525Y0066305D03*
X0028075Y0066300D03*
D16*
X0019890Y0055644D02*
X0013128Y0055644D01*
X0013128Y0057956D01*
X0019890Y0057956D01*
X0019890Y0055644D01*
X0019890Y0056414D02*
X0013128Y0056414D01*
X0013128Y0057184D02*
X0019890Y0057184D01*
X0019890Y0057954D02*
X0013128Y0057954D01*
X0013128Y0050644D02*
X0019890Y0050644D01*
X0013128Y0050644D02*
X0013128Y0052956D01*
X0019890Y0052956D01*
X0019890Y0050644D01*
X0019890Y0051414D02*
X0013128Y0051414D01*
X0013128Y0052184D02*
X0019890Y0052184D01*
X0019890Y0052954D02*
X0013128Y0052954D01*
X0013128Y0045644D02*
X0019890Y0045644D01*
X0013128Y0045644D02*
X0013128Y0047956D01*
X0019890Y0047956D01*
X0019890Y0045644D01*
X0019890Y0046414D02*
X0013128Y0046414D01*
X0013128Y0047184D02*
X0019890Y0047184D01*
X0019890Y0047954D02*
X0013128Y0047954D01*
X0013128Y0040644D02*
X0019890Y0040644D01*
X0013128Y0040644D02*
X0013128Y0042956D01*
X0019890Y0042956D01*
X0019890Y0040644D01*
X0019890Y0041414D02*
X0013128Y0041414D01*
X0013128Y0042184D02*
X0019890Y0042184D01*
X0019890Y0042954D02*
X0013128Y0042954D01*
X0041710Y0040644D02*
X0048472Y0040644D01*
X0041710Y0040644D02*
X0041710Y0042956D01*
X0048472Y0042956D01*
X0048472Y0040644D01*
X0048472Y0041414D02*
X0041710Y0041414D01*
X0041710Y0042184D02*
X0048472Y0042184D01*
X0048472Y0042954D02*
X0041710Y0042954D01*
X0041710Y0045644D02*
X0048472Y0045644D01*
X0041710Y0045644D02*
X0041710Y0047956D01*
X0048472Y0047956D01*
X0048472Y0045644D01*
X0048472Y0046414D02*
X0041710Y0046414D01*
X0041710Y0047184D02*
X0048472Y0047184D01*
X0048472Y0047954D02*
X0041710Y0047954D01*
X0041710Y0050644D02*
X0048472Y0050644D01*
X0041710Y0050644D02*
X0041710Y0052956D01*
X0048472Y0052956D01*
X0048472Y0050644D01*
X0048472Y0051414D02*
X0041710Y0051414D01*
X0041710Y0052184D02*
X0048472Y0052184D01*
X0048472Y0052954D02*
X0041710Y0052954D01*
X0041710Y0055644D02*
X0048472Y0055644D01*
X0041710Y0055644D02*
X0041710Y0057956D01*
X0048472Y0057956D01*
X0048472Y0055644D01*
X0048472Y0056414D02*
X0041710Y0056414D01*
X0041710Y0057184D02*
X0048472Y0057184D01*
X0048472Y0057954D02*
X0041710Y0057954D01*
D17*
X0046312Y0030300D03*
X0035288Y0030300D03*
X0026312Y0030300D03*
X0015288Y0030300D03*
D18*
X0010800Y0010800D03*
X0020800Y0010800D03*
X0030800Y0010800D03*
X0040800Y0010800D03*
X0050800Y0010800D03*
M02*
