G75*
%MOIN*%
%OFA0B0*%
%FSLAX25Y25*%
%IPPOS*%
%LPD*%
%AMOC8*
5,1,8,0,0,1.08239X$1,22.5*
%
%ADD10C,0.00000*%
%ADD11C,0.00300*%
%ADD12C,0.00787*%
%ADD13C,0.00500*%
%ADD14R,0.01673X0.04921*%
D10*
X0003300Y0003800D02*
X0003300Y0074761D01*
X0058001Y0074761D01*
X0058001Y0003800D01*
X0003300Y0003800D01*
D11*
X0009202Y0015190D02*
X0009202Y0016804D01*
X0009202Y0015997D02*
X0012107Y0015997D01*
X0012107Y0018025D02*
X0009202Y0018025D01*
X0009202Y0018832D01*
X0009204Y0018887D01*
X0009210Y0018942D01*
X0009219Y0018996D01*
X0009232Y0019050D01*
X0009249Y0019102D01*
X0009269Y0019154D01*
X0009292Y0019203D01*
X0009319Y0019251D01*
X0009350Y0019297D01*
X0009383Y0019341D01*
X0009419Y0019383D01*
X0009458Y0019422D01*
X0009500Y0019458D01*
X0009544Y0019491D01*
X0009590Y0019522D01*
X0009638Y0019549D01*
X0009687Y0019572D01*
X0009739Y0019592D01*
X0009791Y0019609D01*
X0009845Y0019622D01*
X0009899Y0019631D01*
X0009954Y0019637D01*
X0010009Y0019639D01*
X0010064Y0019637D01*
X0010119Y0019631D01*
X0010173Y0019622D01*
X0010227Y0019609D01*
X0010279Y0019592D01*
X0010331Y0019572D01*
X0010380Y0019549D01*
X0010428Y0019522D01*
X0010474Y0019491D01*
X0010518Y0019458D01*
X0010560Y0019422D01*
X0010599Y0019383D01*
X0010635Y0019341D01*
X0010668Y0019297D01*
X0010699Y0019251D01*
X0010726Y0019203D01*
X0010749Y0019154D01*
X0010769Y0019102D01*
X0010786Y0019050D01*
X0010799Y0018996D01*
X0010808Y0018942D01*
X0010814Y0018887D01*
X0010816Y0018832D01*
X0010816Y0018025D01*
X0009525Y0020767D02*
X0009202Y0020767D01*
X0009202Y0022381D01*
X0012107Y0021574D01*
X0010220Y0028920D02*
X0008606Y0028920D01*
X0009978Y0030534D01*
X0009493Y0031825D02*
X0009434Y0031823D01*
X0009376Y0031818D01*
X0009318Y0031808D01*
X0009261Y0031796D01*
X0009204Y0031779D01*
X0009149Y0031759D01*
X0009095Y0031736D01*
X0009043Y0031709D01*
X0008993Y0031680D01*
X0008944Y0031647D01*
X0008898Y0031611D01*
X0008854Y0031572D01*
X0008812Y0031530D01*
X0008774Y0031486D01*
X0008738Y0031440D01*
X0008705Y0031391D01*
X0008675Y0031341D01*
X0008648Y0031289D01*
X0008625Y0031235D01*
X0008605Y0031179D01*
X0009978Y0030534D02*
X0010015Y0030572D01*
X0010049Y0030612D01*
X0010081Y0030654D01*
X0010109Y0030698D01*
X0010135Y0030744D01*
X0010157Y0030792D01*
X0010176Y0030841D01*
X0010192Y0030891D01*
X0010204Y0030942D01*
X0010213Y0030994D01*
X0010218Y0031046D01*
X0010220Y0031099D01*
X0010219Y0031099D02*
X0010217Y0031151D01*
X0010212Y0031202D01*
X0010202Y0031253D01*
X0010190Y0031304D01*
X0010173Y0031353D01*
X0010153Y0031401D01*
X0010130Y0031447D01*
X0010104Y0031492D01*
X0010074Y0031534D01*
X0010042Y0031574D01*
X0010006Y0031612D01*
X0009968Y0031648D01*
X0009928Y0031680D01*
X0009886Y0031710D01*
X0009841Y0031736D01*
X0009795Y0031759D01*
X0009747Y0031779D01*
X0009698Y0031796D01*
X0009647Y0031808D01*
X0009596Y0031818D01*
X0009545Y0031823D01*
X0009493Y0031825D01*
X0007239Y0031018D02*
X0007239Y0029727D01*
X0007237Y0029672D01*
X0007231Y0029617D01*
X0007222Y0029563D01*
X0007209Y0029509D01*
X0007192Y0029457D01*
X0007172Y0029405D01*
X0007149Y0029356D01*
X0007122Y0029308D01*
X0007091Y0029262D01*
X0007058Y0029218D01*
X0007022Y0029176D01*
X0006983Y0029137D01*
X0006941Y0029101D01*
X0006897Y0029068D01*
X0006851Y0029037D01*
X0006803Y0029010D01*
X0006754Y0028987D01*
X0006702Y0028967D01*
X0006650Y0028950D01*
X0006596Y0028937D01*
X0006542Y0028928D01*
X0006487Y0028922D01*
X0006432Y0028920D01*
X0005625Y0028920D01*
X0005625Y0031825D01*
X0006432Y0031825D01*
X0006487Y0031823D01*
X0006542Y0031817D01*
X0006596Y0031808D01*
X0006650Y0031795D01*
X0006702Y0031778D01*
X0006754Y0031758D01*
X0006803Y0031735D01*
X0006851Y0031708D01*
X0006897Y0031677D01*
X0006941Y0031644D01*
X0006983Y0031608D01*
X0007022Y0031569D01*
X0007058Y0031527D01*
X0007091Y0031483D01*
X0007122Y0031437D01*
X0007149Y0031389D01*
X0007172Y0031340D01*
X0007192Y0031288D01*
X0007209Y0031236D01*
X0007222Y0031182D01*
X0007231Y0031128D01*
X0007237Y0031073D01*
X0007239Y0031018D01*
X0019702Y0018832D02*
X0019702Y0018025D01*
X0022607Y0018025D01*
X0021316Y0018025D02*
X0021316Y0018832D01*
X0021314Y0018887D01*
X0021308Y0018942D01*
X0021299Y0018996D01*
X0021286Y0019050D01*
X0021269Y0019102D01*
X0021249Y0019154D01*
X0021226Y0019203D01*
X0021199Y0019251D01*
X0021168Y0019297D01*
X0021135Y0019341D01*
X0021099Y0019383D01*
X0021060Y0019422D01*
X0021018Y0019458D01*
X0020974Y0019491D01*
X0020928Y0019522D01*
X0020880Y0019549D01*
X0020831Y0019572D01*
X0020779Y0019592D01*
X0020727Y0019609D01*
X0020673Y0019622D01*
X0020619Y0019631D01*
X0020564Y0019637D01*
X0020509Y0019639D01*
X0020454Y0019637D01*
X0020399Y0019631D01*
X0020345Y0019622D01*
X0020291Y0019609D01*
X0020239Y0019592D01*
X0020187Y0019572D01*
X0020138Y0019549D01*
X0020090Y0019522D01*
X0020044Y0019491D01*
X0020000Y0019458D01*
X0019958Y0019422D01*
X0019919Y0019383D01*
X0019883Y0019341D01*
X0019850Y0019297D01*
X0019819Y0019251D01*
X0019792Y0019203D01*
X0019769Y0019154D01*
X0019749Y0019102D01*
X0019732Y0019050D01*
X0019719Y0018996D01*
X0019710Y0018942D01*
X0019704Y0018887D01*
X0019702Y0018832D01*
X0020509Y0020767D02*
X0020670Y0020767D01*
X0020721Y0020769D01*
X0020771Y0020775D01*
X0020821Y0020785D01*
X0020870Y0020799D01*
X0020917Y0020816D01*
X0020963Y0020837D01*
X0021008Y0020862D01*
X0021050Y0020890D01*
X0021090Y0020922D01*
X0021127Y0020956D01*
X0021161Y0020993D01*
X0021193Y0021033D01*
X0021221Y0021075D01*
X0021246Y0021120D01*
X0021267Y0021166D01*
X0021284Y0021213D01*
X0021298Y0021262D01*
X0021308Y0021312D01*
X0021314Y0021362D01*
X0021316Y0021413D01*
X0021316Y0022381D01*
X0020509Y0022381D01*
X0020454Y0022379D01*
X0020399Y0022373D01*
X0020345Y0022364D01*
X0020291Y0022351D01*
X0020239Y0022334D01*
X0020187Y0022314D01*
X0020138Y0022291D01*
X0020090Y0022264D01*
X0020044Y0022233D01*
X0020000Y0022200D01*
X0019958Y0022164D01*
X0019919Y0022125D01*
X0019883Y0022083D01*
X0019850Y0022039D01*
X0019819Y0021993D01*
X0019792Y0021945D01*
X0019769Y0021896D01*
X0019749Y0021844D01*
X0019732Y0021792D01*
X0019719Y0021738D01*
X0019710Y0021684D01*
X0019704Y0021629D01*
X0019702Y0021574D01*
X0019704Y0021519D01*
X0019710Y0021464D01*
X0019719Y0021410D01*
X0019732Y0021356D01*
X0019749Y0021304D01*
X0019769Y0021252D01*
X0019792Y0021203D01*
X0019819Y0021155D01*
X0019850Y0021109D01*
X0019883Y0021065D01*
X0019919Y0021023D01*
X0019958Y0020984D01*
X0020000Y0020948D01*
X0020044Y0020915D01*
X0020090Y0020884D01*
X0020138Y0020857D01*
X0020187Y0020834D01*
X0020239Y0020814D01*
X0020291Y0020797D01*
X0020345Y0020784D01*
X0020399Y0020775D01*
X0020454Y0020769D01*
X0020509Y0020767D01*
X0021316Y0022381D02*
X0021386Y0022379D01*
X0021456Y0022373D01*
X0021525Y0022364D01*
X0021594Y0022351D01*
X0021661Y0022334D01*
X0021728Y0022313D01*
X0021794Y0022289D01*
X0021858Y0022262D01*
X0021921Y0022231D01*
X0021982Y0022196D01*
X0022040Y0022159D01*
X0022097Y0022118D01*
X0022152Y0022074D01*
X0022204Y0022027D01*
X0022253Y0021978D01*
X0022300Y0021926D01*
X0022344Y0021871D01*
X0022385Y0021814D01*
X0022422Y0021756D01*
X0022457Y0021695D01*
X0022488Y0021632D01*
X0022515Y0021568D01*
X0022539Y0021502D01*
X0022560Y0021435D01*
X0022577Y0021368D01*
X0022590Y0021299D01*
X0022599Y0021230D01*
X0022605Y0021160D01*
X0022607Y0021090D01*
X0019702Y0016804D02*
X0019702Y0015190D01*
X0019702Y0015997D02*
X0022607Y0015997D01*
X0029202Y0015997D02*
X0032107Y0015997D01*
X0032107Y0018025D02*
X0029202Y0018025D01*
X0029202Y0018832D01*
X0029204Y0018887D01*
X0029210Y0018942D01*
X0029219Y0018996D01*
X0029232Y0019050D01*
X0029249Y0019102D01*
X0029269Y0019154D01*
X0029292Y0019203D01*
X0029319Y0019251D01*
X0029350Y0019297D01*
X0029383Y0019341D01*
X0029419Y0019383D01*
X0029458Y0019422D01*
X0029500Y0019458D01*
X0029544Y0019491D01*
X0029590Y0019522D01*
X0029638Y0019549D01*
X0029687Y0019572D01*
X0029739Y0019592D01*
X0029791Y0019609D01*
X0029845Y0019622D01*
X0029899Y0019631D01*
X0029954Y0019637D01*
X0030009Y0019639D01*
X0030064Y0019637D01*
X0030119Y0019631D01*
X0030173Y0019622D01*
X0030227Y0019609D01*
X0030279Y0019592D01*
X0030331Y0019572D01*
X0030380Y0019549D01*
X0030428Y0019522D01*
X0030474Y0019491D01*
X0030518Y0019458D01*
X0030560Y0019422D01*
X0030599Y0019383D01*
X0030635Y0019341D01*
X0030668Y0019297D01*
X0030699Y0019251D01*
X0030726Y0019203D01*
X0030749Y0019154D01*
X0030769Y0019102D01*
X0030786Y0019050D01*
X0030799Y0018996D01*
X0030808Y0018942D01*
X0030814Y0018887D01*
X0030816Y0018832D01*
X0030816Y0018025D01*
X0029202Y0016804D02*
X0029202Y0015190D01*
X0029848Y0020767D02*
X0029202Y0021574D01*
X0032107Y0021574D01*
X0032107Y0020767D02*
X0032107Y0022381D01*
X0032107Y0023652D02*
X0032107Y0025266D01*
X0032107Y0024459D02*
X0029202Y0024459D01*
X0029848Y0023652D01*
X0039202Y0021574D02*
X0042107Y0021574D01*
X0042107Y0020767D02*
X0042107Y0022381D01*
X0041300Y0023652D02*
X0041355Y0023654D01*
X0041410Y0023660D01*
X0041464Y0023669D01*
X0041518Y0023682D01*
X0041570Y0023699D01*
X0041622Y0023719D01*
X0041671Y0023742D01*
X0041719Y0023769D01*
X0041765Y0023800D01*
X0041809Y0023833D01*
X0041851Y0023869D01*
X0041890Y0023908D01*
X0041926Y0023950D01*
X0041959Y0023994D01*
X0041990Y0024040D01*
X0042017Y0024088D01*
X0042040Y0024137D01*
X0042060Y0024189D01*
X0042077Y0024241D01*
X0042090Y0024295D01*
X0042099Y0024349D01*
X0042105Y0024404D01*
X0042107Y0024459D01*
X0042105Y0024514D01*
X0042099Y0024569D01*
X0042090Y0024623D01*
X0042077Y0024677D01*
X0042060Y0024729D01*
X0042040Y0024781D01*
X0042017Y0024830D01*
X0041990Y0024878D01*
X0041959Y0024924D01*
X0041926Y0024968D01*
X0041890Y0025010D01*
X0041851Y0025049D01*
X0041809Y0025085D01*
X0041765Y0025118D01*
X0041719Y0025149D01*
X0041671Y0025176D01*
X0041622Y0025199D01*
X0041570Y0025219D01*
X0041518Y0025236D01*
X0041464Y0025249D01*
X0041410Y0025258D01*
X0041355Y0025264D01*
X0041300Y0025266D01*
X0041245Y0025264D01*
X0041190Y0025258D01*
X0041136Y0025249D01*
X0041082Y0025236D01*
X0041030Y0025219D01*
X0040978Y0025199D01*
X0040929Y0025176D01*
X0040881Y0025149D01*
X0040835Y0025118D01*
X0040791Y0025085D01*
X0040749Y0025049D01*
X0040710Y0025010D01*
X0040674Y0024968D01*
X0040641Y0024924D01*
X0040610Y0024878D01*
X0040583Y0024830D01*
X0040560Y0024781D01*
X0040540Y0024729D01*
X0040523Y0024677D01*
X0040510Y0024623D01*
X0040501Y0024569D01*
X0040495Y0024514D01*
X0040493Y0024459D01*
X0040495Y0024404D01*
X0040501Y0024349D01*
X0040510Y0024295D01*
X0040523Y0024241D01*
X0040540Y0024189D01*
X0040560Y0024137D01*
X0040583Y0024088D01*
X0040610Y0024040D01*
X0040641Y0023994D01*
X0040674Y0023950D01*
X0040710Y0023908D01*
X0040749Y0023869D01*
X0040791Y0023833D01*
X0040835Y0023800D01*
X0040881Y0023769D01*
X0040929Y0023742D01*
X0040978Y0023719D01*
X0041030Y0023699D01*
X0041082Y0023682D01*
X0041136Y0023669D01*
X0041190Y0023660D01*
X0041245Y0023654D01*
X0041300Y0023652D01*
X0039848Y0023813D02*
X0039897Y0023815D01*
X0039947Y0023821D01*
X0039995Y0023830D01*
X0040043Y0023843D01*
X0040089Y0023860D01*
X0040135Y0023880D01*
X0040178Y0023904D01*
X0040220Y0023931D01*
X0040259Y0023961D01*
X0040296Y0023994D01*
X0040330Y0024029D01*
X0040362Y0024067D01*
X0040390Y0024108D01*
X0040416Y0024150D01*
X0040437Y0024195D01*
X0040456Y0024241D01*
X0040471Y0024288D01*
X0040482Y0024336D01*
X0040490Y0024385D01*
X0040494Y0024434D01*
X0040494Y0024484D01*
X0040490Y0024533D01*
X0040482Y0024582D01*
X0040471Y0024630D01*
X0040456Y0024677D01*
X0040437Y0024723D01*
X0040416Y0024768D01*
X0040390Y0024810D01*
X0040362Y0024851D01*
X0040330Y0024889D01*
X0040296Y0024924D01*
X0040259Y0024957D01*
X0040220Y0024987D01*
X0040178Y0025014D01*
X0040135Y0025038D01*
X0040089Y0025058D01*
X0040043Y0025075D01*
X0039995Y0025088D01*
X0039947Y0025097D01*
X0039897Y0025103D01*
X0039848Y0025105D01*
X0039799Y0025103D01*
X0039749Y0025097D01*
X0039701Y0025088D01*
X0039653Y0025075D01*
X0039607Y0025058D01*
X0039561Y0025038D01*
X0039518Y0025014D01*
X0039476Y0024987D01*
X0039437Y0024957D01*
X0039400Y0024924D01*
X0039366Y0024889D01*
X0039334Y0024851D01*
X0039306Y0024810D01*
X0039280Y0024768D01*
X0039259Y0024723D01*
X0039240Y0024677D01*
X0039225Y0024630D01*
X0039214Y0024582D01*
X0039206Y0024533D01*
X0039202Y0024484D01*
X0039202Y0024434D01*
X0039206Y0024385D01*
X0039214Y0024336D01*
X0039225Y0024288D01*
X0039240Y0024241D01*
X0039259Y0024195D01*
X0039280Y0024150D01*
X0039306Y0024108D01*
X0039334Y0024067D01*
X0039366Y0024029D01*
X0039400Y0023994D01*
X0039437Y0023961D01*
X0039476Y0023931D01*
X0039518Y0023904D01*
X0039561Y0023880D01*
X0039607Y0023860D01*
X0039653Y0023843D01*
X0039701Y0023830D01*
X0039749Y0023821D01*
X0039799Y0023815D01*
X0039848Y0023813D01*
X0039202Y0021574D02*
X0039848Y0020767D01*
X0039202Y0018832D02*
X0039204Y0018887D01*
X0039210Y0018942D01*
X0039219Y0018996D01*
X0039232Y0019050D01*
X0039249Y0019102D01*
X0039269Y0019154D01*
X0039292Y0019203D01*
X0039319Y0019251D01*
X0039350Y0019297D01*
X0039383Y0019341D01*
X0039419Y0019383D01*
X0039458Y0019422D01*
X0039500Y0019458D01*
X0039544Y0019491D01*
X0039590Y0019522D01*
X0039638Y0019549D01*
X0039687Y0019572D01*
X0039739Y0019592D01*
X0039791Y0019609D01*
X0039845Y0019622D01*
X0039899Y0019631D01*
X0039954Y0019637D01*
X0040009Y0019639D01*
X0040064Y0019637D01*
X0040119Y0019631D01*
X0040173Y0019622D01*
X0040227Y0019609D01*
X0040279Y0019592D01*
X0040331Y0019572D01*
X0040380Y0019549D01*
X0040428Y0019522D01*
X0040474Y0019491D01*
X0040518Y0019458D01*
X0040560Y0019422D01*
X0040599Y0019383D01*
X0040635Y0019341D01*
X0040668Y0019297D01*
X0040699Y0019251D01*
X0040726Y0019203D01*
X0040749Y0019154D01*
X0040769Y0019102D01*
X0040786Y0019050D01*
X0040799Y0018996D01*
X0040808Y0018942D01*
X0040814Y0018887D01*
X0040816Y0018832D01*
X0040816Y0018025D01*
X0042107Y0018025D02*
X0039202Y0018025D01*
X0039202Y0018832D01*
X0039202Y0016804D02*
X0039202Y0015190D01*
X0039202Y0015997D02*
X0042107Y0015997D01*
X0049702Y0015997D02*
X0052607Y0015997D01*
X0052607Y0017882D02*
X0052607Y0019496D01*
X0052607Y0018689D02*
X0049702Y0018689D01*
X0050348Y0017882D01*
X0049702Y0016804D02*
X0049702Y0015190D01*
X0050106Y0022139D02*
X0050188Y0022177D01*
X0050271Y0022212D01*
X0050356Y0022244D01*
X0050442Y0022272D01*
X0050529Y0022298D01*
X0050617Y0022320D01*
X0050705Y0022338D01*
X0050794Y0022354D01*
X0050884Y0022366D01*
X0050974Y0022374D01*
X0051065Y0022379D01*
X0051155Y0022381D01*
X0051155Y0020767D02*
X0051245Y0020769D01*
X0051336Y0020774D01*
X0051426Y0020782D01*
X0051516Y0020794D01*
X0051605Y0020810D01*
X0051693Y0020828D01*
X0051781Y0020850D01*
X0051868Y0020876D01*
X0051954Y0020904D01*
X0052039Y0020936D01*
X0052122Y0020971D01*
X0052204Y0021009D01*
X0051962Y0020928D02*
X0050348Y0022220D01*
X0050105Y0022139D02*
X0050062Y0022122D01*
X0050020Y0022102D01*
X0049980Y0022079D01*
X0049942Y0022053D01*
X0049906Y0022024D01*
X0049873Y0021992D01*
X0049842Y0021958D01*
X0049813Y0021921D01*
X0049788Y0021882D01*
X0049765Y0021842D01*
X0049746Y0021800D01*
X0049730Y0021756D01*
X0049718Y0021712D01*
X0049709Y0021666D01*
X0049704Y0021620D01*
X0049702Y0021574D01*
X0049704Y0021528D01*
X0049709Y0021482D01*
X0049718Y0021436D01*
X0049730Y0021392D01*
X0049746Y0021348D01*
X0049765Y0021306D01*
X0049788Y0021266D01*
X0049813Y0021227D01*
X0049842Y0021190D01*
X0049873Y0021156D01*
X0049906Y0021124D01*
X0049942Y0021095D01*
X0049980Y0021069D01*
X0050020Y0021046D01*
X0050062Y0021026D01*
X0050105Y0021009D01*
X0051155Y0022381D02*
X0051245Y0022379D01*
X0051336Y0022374D01*
X0051426Y0022366D01*
X0051516Y0022354D01*
X0051605Y0022338D01*
X0051693Y0022320D01*
X0051781Y0022298D01*
X0051868Y0022272D01*
X0051954Y0022244D01*
X0052039Y0022212D01*
X0052122Y0022177D01*
X0052204Y0022139D01*
X0052247Y0022122D01*
X0052289Y0022102D01*
X0052329Y0022079D01*
X0052367Y0022053D01*
X0052403Y0022024D01*
X0052436Y0021992D01*
X0052467Y0021958D01*
X0052496Y0021921D01*
X0052521Y0021882D01*
X0052544Y0021842D01*
X0052563Y0021800D01*
X0052579Y0021756D01*
X0052591Y0021712D01*
X0052600Y0021666D01*
X0052605Y0021620D01*
X0052607Y0021574D01*
X0052605Y0021528D01*
X0052600Y0021482D01*
X0052591Y0021436D01*
X0052579Y0021392D01*
X0052563Y0021348D01*
X0052544Y0021306D01*
X0052521Y0021266D01*
X0052496Y0021227D01*
X0052467Y0021190D01*
X0052436Y0021156D01*
X0052403Y0021124D01*
X0052367Y0021095D01*
X0052329Y0021069D01*
X0052289Y0021046D01*
X0052247Y0021026D01*
X0052204Y0021009D01*
X0051155Y0020767D02*
X0051065Y0020769D01*
X0050974Y0020774D01*
X0050884Y0020782D01*
X0050794Y0020794D01*
X0050705Y0020810D01*
X0050617Y0020828D01*
X0050529Y0020850D01*
X0050442Y0020876D01*
X0050356Y0020904D01*
X0050271Y0020936D01*
X0050188Y0020971D01*
X0050106Y0021009D01*
X0051880Y0028775D02*
X0052687Y0028775D01*
X0052742Y0028777D01*
X0052797Y0028783D01*
X0052851Y0028792D01*
X0052905Y0028805D01*
X0052957Y0028822D01*
X0053009Y0028842D01*
X0053058Y0028865D01*
X0053106Y0028892D01*
X0053152Y0028923D01*
X0053196Y0028956D01*
X0053238Y0028992D01*
X0053277Y0029031D01*
X0053313Y0029073D01*
X0053346Y0029117D01*
X0053377Y0029163D01*
X0053404Y0029211D01*
X0053427Y0029260D01*
X0053447Y0029312D01*
X0053464Y0029364D01*
X0053477Y0029418D01*
X0053486Y0029472D01*
X0053492Y0029527D01*
X0053494Y0029582D01*
X0053494Y0030873D01*
X0053492Y0030928D01*
X0053486Y0030983D01*
X0053477Y0031037D01*
X0053464Y0031091D01*
X0053447Y0031143D01*
X0053427Y0031195D01*
X0053404Y0031244D01*
X0053377Y0031292D01*
X0053346Y0031338D01*
X0053313Y0031382D01*
X0053277Y0031424D01*
X0053238Y0031463D01*
X0053196Y0031499D01*
X0053152Y0031532D01*
X0053106Y0031563D01*
X0053058Y0031590D01*
X0053009Y0031613D01*
X0052957Y0031633D01*
X0052905Y0031650D01*
X0052851Y0031663D01*
X0052797Y0031672D01*
X0052742Y0031678D01*
X0052687Y0031680D01*
X0051880Y0031680D01*
X0051880Y0028775D01*
X0054861Y0028775D02*
X0056475Y0028775D01*
X0055668Y0028775D02*
X0055668Y0031680D01*
X0054861Y0031035D01*
X0034271Y0070143D02*
X0032657Y0070143D01*
X0033464Y0070143D02*
X0033464Y0073048D01*
X0032657Y0072402D01*
X0030722Y0073048D02*
X0030777Y0073046D01*
X0030832Y0073040D01*
X0030886Y0073031D01*
X0030940Y0073018D01*
X0030992Y0073001D01*
X0031044Y0072981D01*
X0031093Y0072958D01*
X0031141Y0072931D01*
X0031187Y0072900D01*
X0031231Y0072867D01*
X0031273Y0072831D01*
X0031312Y0072792D01*
X0031348Y0072750D01*
X0031381Y0072706D01*
X0031412Y0072660D01*
X0031439Y0072612D01*
X0031462Y0072563D01*
X0031482Y0072511D01*
X0031499Y0072459D01*
X0031512Y0072405D01*
X0031521Y0072351D01*
X0031527Y0072296D01*
X0031529Y0072241D01*
X0031527Y0072186D01*
X0031521Y0072131D01*
X0031512Y0072077D01*
X0031499Y0072023D01*
X0031482Y0071971D01*
X0031462Y0071919D01*
X0031439Y0071870D01*
X0031412Y0071822D01*
X0031381Y0071776D01*
X0031348Y0071732D01*
X0031312Y0071690D01*
X0031273Y0071651D01*
X0031231Y0071615D01*
X0031187Y0071582D01*
X0031141Y0071551D01*
X0031093Y0071524D01*
X0031044Y0071501D01*
X0030992Y0071481D01*
X0030940Y0071464D01*
X0030886Y0071451D01*
X0030832Y0071442D01*
X0030777Y0071436D01*
X0030722Y0071434D01*
X0029915Y0071434D01*
X0029915Y0070143D02*
X0029915Y0073048D01*
X0030722Y0073048D01*
X0028418Y0073048D02*
X0028418Y0070788D01*
X0028419Y0070788D02*
X0028417Y0070737D01*
X0028411Y0070687D01*
X0028401Y0070637D01*
X0028387Y0070588D01*
X0028370Y0070541D01*
X0028349Y0070495D01*
X0028324Y0070450D01*
X0028296Y0070408D01*
X0028264Y0070368D01*
X0028230Y0070331D01*
X0028193Y0070297D01*
X0028153Y0070265D01*
X0028111Y0070237D01*
X0028066Y0070212D01*
X0028020Y0070191D01*
X0027973Y0070174D01*
X0027924Y0070160D01*
X0027874Y0070150D01*
X0027824Y0070144D01*
X0027773Y0070142D01*
X0027773Y0070143D02*
X0027450Y0070143D01*
X0018183Y0060678D02*
X0016569Y0060678D01*
X0017376Y0060678D02*
X0017376Y0063583D01*
X0016569Y0062938D01*
X0015202Y0063583D02*
X0015202Y0061485D01*
X0015200Y0061430D01*
X0015194Y0061375D01*
X0015185Y0061321D01*
X0015172Y0061267D01*
X0015155Y0061215D01*
X0015135Y0061163D01*
X0015112Y0061114D01*
X0015085Y0061066D01*
X0015054Y0061020D01*
X0015021Y0060976D01*
X0014985Y0060934D01*
X0014946Y0060895D01*
X0014904Y0060859D01*
X0014860Y0060826D01*
X0014814Y0060795D01*
X0014766Y0060768D01*
X0014717Y0060745D01*
X0014665Y0060725D01*
X0014613Y0060708D01*
X0014559Y0060695D01*
X0014505Y0060686D01*
X0014450Y0060680D01*
X0014395Y0060678D01*
X0014340Y0060680D01*
X0014285Y0060686D01*
X0014231Y0060695D01*
X0014177Y0060708D01*
X0014125Y0060725D01*
X0014073Y0060745D01*
X0014024Y0060768D01*
X0013976Y0060795D01*
X0013930Y0060826D01*
X0013886Y0060859D01*
X0013844Y0060895D01*
X0013805Y0060934D01*
X0013769Y0060976D01*
X0013736Y0061020D01*
X0013705Y0061066D01*
X0013678Y0061114D01*
X0013655Y0061163D01*
X0013635Y0061215D01*
X0013618Y0061267D01*
X0013605Y0061321D01*
X0013596Y0061375D01*
X0013590Y0061430D01*
X0013588Y0061485D01*
X0013588Y0063583D01*
D12*
X0009382Y0059083D02*
X0009384Y0059122D01*
X0009390Y0059161D01*
X0009400Y0059199D01*
X0009413Y0059236D01*
X0009430Y0059271D01*
X0009450Y0059305D01*
X0009474Y0059336D01*
X0009501Y0059365D01*
X0009530Y0059391D01*
X0009562Y0059414D01*
X0009596Y0059434D01*
X0009632Y0059450D01*
X0009669Y0059462D01*
X0009708Y0059471D01*
X0009747Y0059476D01*
X0009786Y0059477D01*
X0009825Y0059474D01*
X0009864Y0059467D01*
X0009901Y0059456D01*
X0009938Y0059442D01*
X0009973Y0059424D01*
X0010006Y0059403D01*
X0010037Y0059378D01*
X0010065Y0059351D01*
X0010090Y0059321D01*
X0010112Y0059288D01*
X0010131Y0059254D01*
X0010146Y0059218D01*
X0010158Y0059180D01*
X0010166Y0059142D01*
X0010170Y0059103D01*
X0010170Y0059063D01*
X0010166Y0059024D01*
X0010158Y0058986D01*
X0010146Y0058948D01*
X0010131Y0058912D01*
X0010112Y0058878D01*
X0010090Y0058845D01*
X0010065Y0058815D01*
X0010037Y0058788D01*
X0010006Y0058763D01*
X0009973Y0058742D01*
X0009938Y0058724D01*
X0009901Y0058710D01*
X0009864Y0058699D01*
X0009825Y0058692D01*
X0009786Y0058689D01*
X0009747Y0058690D01*
X0009708Y0058695D01*
X0009669Y0058704D01*
X0009632Y0058716D01*
X0009596Y0058732D01*
X0009562Y0058752D01*
X0009530Y0058775D01*
X0009501Y0058801D01*
X0009474Y0058830D01*
X0009450Y0058861D01*
X0009430Y0058895D01*
X0009413Y0058930D01*
X0009400Y0058967D01*
X0009390Y0059005D01*
X0009384Y0059044D01*
X0009382Y0059083D01*
D13*
X0020387Y0059615D02*
X0041213Y0059615D01*
X0041213Y0038985D02*
X0020387Y0038985D01*
D14*
X0022424Y0030300D03*
X0039176Y0030300D03*
M02*
