G75*
%MOIN*%
%OFA0B0*%
%FSLAX25Y25*%
%IPPOS*%
%LPD*%
%AMOC8*
5,1,8,0,0,1.08239X$1,22.5*
%
%ADD10C,0.00000*%
%ADD11C,0.00600*%
%ADD12C,0.02978*%
%ADD13C,0.01000*%
D10*
X0003300Y0003800D02*
X0003300Y0074761D01*
X0058001Y0074761D01*
X0058001Y0003800D01*
X0003300Y0003800D01*
D11*
X0001300Y0001300D02*
X0001300Y0076800D01*
X0059800Y0076800D01*
X0059800Y0001300D01*
X0001300Y0001300D01*
X0001300Y0001406D02*
X0059800Y0001406D01*
X0059800Y0002004D02*
X0001300Y0002004D01*
X0001300Y0002603D02*
X0059800Y0002603D01*
X0059800Y0003201D02*
X0001300Y0003201D01*
X0001300Y0003800D02*
X0059800Y0003800D01*
X0059800Y0004399D02*
X0001300Y0004399D01*
X0001300Y0004997D02*
X0059800Y0004997D01*
X0059800Y0005596D02*
X0001300Y0005596D01*
X0001300Y0006194D02*
X0059800Y0006194D01*
X0059800Y0006793D02*
X0001300Y0006793D01*
X0001300Y0007391D02*
X0059800Y0007391D01*
X0059800Y0007990D02*
X0001300Y0007990D01*
X0001300Y0008588D02*
X0059800Y0008588D01*
X0059800Y0009187D02*
X0001300Y0009187D01*
X0001300Y0009785D02*
X0059800Y0009785D01*
X0059800Y0010384D02*
X0001300Y0010384D01*
X0001300Y0010982D02*
X0059800Y0010982D01*
X0059800Y0011581D02*
X0001300Y0011581D01*
X0001300Y0012179D02*
X0059800Y0012179D01*
X0059800Y0012778D02*
X0001300Y0012778D01*
X0001300Y0013376D02*
X0059800Y0013376D01*
X0059800Y0013975D02*
X0001300Y0013975D01*
X0001300Y0014573D02*
X0059800Y0014573D01*
X0059800Y0015172D02*
X0001300Y0015172D01*
X0001300Y0015770D02*
X0059800Y0015770D01*
X0059800Y0016369D02*
X0001300Y0016369D01*
X0001300Y0016967D02*
X0059800Y0016967D01*
X0059800Y0017566D02*
X0001300Y0017566D01*
X0001300Y0018164D02*
X0059800Y0018164D01*
X0059800Y0018763D02*
X0001300Y0018763D01*
X0001300Y0019361D02*
X0059800Y0019361D01*
X0059800Y0019960D02*
X0001300Y0019960D01*
X0001300Y0020558D02*
X0059800Y0020558D01*
X0059800Y0021157D02*
X0001300Y0021157D01*
X0001300Y0021755D02*
X0059800Y0021755D01*
X0059800Y0022354D02*
X0001300Y0022354D01*
X0001300Y0022952D02*
X0059800Y0022952D01*
X0059800Y0023551D02*
X0001300Y0023551D01*
X0001300Y0024149D02*
X0059800Y0024149D01*
X0059800Y0024748D02*
X0001300Y0024748D01*
X0001300Y0025346D02*
X0059800Y0025346D01*
X0059800Y0025945D02*
X0001300Y0025945D01*
X0001300Y0026543D02*
X0059800Y0026543D01*
X0059800Y0027142D02*
X0001300Y0027142D01*
X0001300Y0027740D02*
X0059800Y0027740D01*
X0059800Y0028339D02*
X0001300Y0028339D01*
X0001300Y0028937D02*
X0059800Y0028937D01*
X0059800Y0029536D02*
X0001300Y0029536D01*
X0001300Y0030134D02*
X0059800Y0030134D01*
X0059800Y0030733D02*
X0001300Y0030733D01*
X0001300Y0031332D02*
X0059800Y0031332D01*
X0059800Y0031930D02*
X0001300Y0031930D01*
X0001300Y0032529D02*
X0059800Y0032529D01*
X0059800Y0033127D02*
X0001300Y0033127D01*
X0001300Y0033726D02*
X0059800Y0033726D01*
X0059800Y0034324D02*
X0001300Y0034324D01*
X0001300Y0034923D02*
X0059800Y0034923D01*
X0059800Y0035521D02*
X0001300Y0035521D01*
X0001300Y0036120D02*
X0059800Y0036120D01*
X0059800Y0036718D02*
X0001300Y0036718D01*
X0001300Y0037317D02*
X0059800Y0037317D01*
X0059800Y0037915D02*
X0001300Y0037915D01*
X0001300Y0038514D02*
X0059800Y0038514D01*
X0059800Y0039112D02*
X0001300Y0039112D01*
X0001300Y0039711D02*
X0059800Y0039711D01*
X0059800Y0040309D02*
X0001300Y0040309D01*
X0001300Y0040908D02*
X0059800Y0040908D01*
X0059800Y0041506D02*
X0001300Y0041506D01*
X0001300Y0042105D02*
X0059800Y0042105D01*
X0059800Y0042703D02*
X0001300Y0042703D01*
X0001300Y0043302D02*
X0059800Y0043302D01*
X0059800Y0043900D02*
X0001300Y0043900D01*
X0001300Y0044499D02*
X0059800Y0044499D01*
X0059800Y0045097D02*
X0001300Y0045097D01*
X0001300Y0045696D02*
X0059800Y0045696D01*
X0059800Y0046294D02*
X0001300Y0046294D01*
X0001300Y0046893D02*
X0059800Y0046893D01*
X0059800Y0047491D02*
X0001300Y0047491D01*
X0001300Y0048090D02*
X0059800Y0048090D01*
X0059800Y0048688D02*
X0001300Y0048688D01*
X0001300Y0049287D02*
X0059800Y0049287D01*
X0059800Y0049885D02*
X0001300Y0049885D01*
X0001300Y0050484D02*
X0059800Y0050484D01*
X0059800Y0051082D02*
X0001300Y0051082D01*
X0001300Y0051681D02*
X0059800Y0051681D01*
X0059800Y0052279D02*
X0001300Y0052279D01*
X0001300Y0052878D02*
X0059800Y0052878D01*
X0059800Y0053476D02*
X0001300Y0053476D01*
X0001300Y0054075D02*
X0026047Y0054075D01*
X0026110Y0054011D02*
X0028090Y0054011D01*
X0029079Y0055000D01*
X0032321Y0055000D01*
X0033310Y0054011D01*
X0035290Y0054011D01*
X0036689Y0055410D01*
X0036689Y0057390D01*
X0035290Y0058789D01*
X0033310Y0058789D01*
X0032321Y0057800D01*
X0029079Y0057800D01*
X0028090Y0058789D01*
X0026110Y0058789D01*
X0024711Y0057390D01*
X0024711Y0055410D01*
X0026110Y0054011D01*
X0025448Y0054673D02*
X0001300Y0054673D01*
X0001300Y0055272D02*
X0024849Y0055272D01*
X0024711Y0055870D02*
X0001300Y0055870D01*
X0001300Y0056469D02*
X0024711Y0056469D01*
X0024711Y0057068D02*
X0001300Y0057068D01*
X0001300Y0057666D02*
X0024987Y0057666D01*
X0025586Y0058265D02*
X0001300Y0058265D01*
X0001300Y0058863D02*
X0059800Y0058863D01*
X0059800Y0058265D02*
X0035814Y0058265D01*
X0036412Y0057666D02*
X0059800Y0057666D01*
X0059800Y0057068D02*
X0036689Y0057068D01*
X0036689Y0056469D02*
X0059800Y0056469D01*
X0059800Y0055870D02*
X0036689Y0055870D01*
X0036550Y0055272D02*
X0059800Y0055272D01*
X0059800Y0054673D02*
X0035952Y0054673D01*
X0035353Y0054075D02*
X0059800Y0054075D01*
X0059800Y0059462D02*
X0001300Y0059462D01*
X0001300Y0060060D02*
X0059800Y0060060D01*
X0059800Y0060659D02*
X0001300Y0060659D01*
X0001300Y0061257D02*
X0059800Y0061257D01*
X0059800Y0061856D02*
X0001300Y0061856D01*
X0001300Y0062454D02*
X0059800Y0062454D01*
X0059800Y0063053D02*
X0001300Y0063053D01*
X0001300Y0063651D02*
X0059800Y0063651D01*
X0059800Y0064250D02*
X0001300Y0064250D01*
X0001300Y0064848D02*
X0059800Y0064848D01*
X0059800Y0065447D02*
X0001300Y0065447D01*
X0001300Y0066045D02*
X0059800Y0066045D01*
X0059800Y0066644D02*
X0001300Y0066644D01*
X0001300Y0067242D02*
X0059800Y0067242D01*
X0059800Y0067841D02*
X0001300Y0067841D01*
X0001300Y0068439D02*
X0059800Y0068439D01*
X0059800Y0069038D02*
X0001300Y0069038D01*
X0001300Y0069636D02*
X0059800Y0069636D01*
X0059800Y0070235D02*
X0001300Y0070235D01*
X0001300Y0070833D02*
X0059800Y0070833D01*
X0059800Y0071432D02*
X0001300Y0071432D01*
X0001300Y0072030D02*
X0059800Y0072030D01*
X0059800Y0072629D02*
X0001300Y0072629D01*
X0001300Y0073227D02*
X0059800Y0073227D01*
X0059800Y0073826D02*
X0001300Y0073826D01*
X0001300Y0074424D02*
X0059800Y0074424D01*
X0059800Y0075023D02*
X0001300Y0075023D01*
X0001300Y0075621D02*
X0059800Y0075621D01*
X0059800Y0076220D02*
X0001300Y0076220D01*
X0028614Y0058265D02*
X0032786Y0058265D01*
X0032648Y0054673D02*
X0028752Y0054673D01*
X0028153Y0054075D02*
X0033247Y0054075D01*
D12*
X0034300Y0056400D03*
X0027100Y0056400D03*
X0005800Y0062300D03*
X0005800Y0018300D03*
X0055800Y0018300D03*
X0055800Y0062300D03*
D13*
X0034300Y0056400D02*
X0027100Y0056400D01*
M02*
