G75*
%MOIN*%
%OFA0B0*%
%FSLAX25Y25*%
%IPPOS*%
%LPD*%
%AMOC8*
5,1,8,0,0,1.08239X$1,22.5*
%
%ADD10C,0.00000*%
%ADD11C,0.00200*%
%ADD12C,0.00400*%
D10*
X0003300Y0003800D02*
X0003300Y0074761D01*
X0058001Y0074761D01*
X0058001Y0003800D01*
X0003300Y0003800D01*
D11*
X0026456Y0006100D02*
X0027733Y0006100D01*
X0026647Y0007378D01*
X0027031Y0008400D02*
X0027083Y0008398D01*
X0027134Y0008393D01*
X0027185Y0008384D01*
X0027235Y0008371D01*
X0027284Y0008355D01*
X0027332Y0008336D01*
X0027378Y0008313D01*
X0027423Y0008288D01*
X0027466Y0008259D01*
X0027506Y0008227D01*
X0027545Y0008192D01*
X0027581Y0008155D01*
X0027614Y0008116D01*
X0027644Y0008074D01*
X0027671Y0008030D01*
X0027695Y0007984D01*
X0027716Y0007937D01*
X0027734Y0007889D01*
X0026647Y0007378D02*
X0026615Y0007410D01*
X0026586Y0007445D01*
X0026559Y0007482D01*
X0026535Y0007520D01*
X0026514Y0007561D01*
X0026496Y0007603D01*
X0026482Y0007646D01*
X0026470Y0007690D01*
X0026462Y0007734D01*
X0026457Y0007780D01*
X0026455Y0007825D01*
X0026456Y0007825D02*
X0026458Y0007870D01*
X0026463Y0007915D01*
X0026472Y0007959D01*
X0026484Y0008003D01*
X0026500Y0008045D01*
X0026519Y0008086D01*
X0026541Y0008125D01*
X0026566Y0008163D01*
X0026594Y0008198D01*
X0026624Y0008232D01*
X0026658Y0008262D01*
X0026693Y0008290D01*
X0026731Y0008315D01*
X0026770Y0008337D01*
X0026811Y0008356D01*
X0026853Y0008372D01*
X0026897Y0008384D01*
X0026941Y0008393D01*
X0026986Y0008398D01*
X0027031Y0008400D01*
X0028706Y0007761D02*
X0028706Y0007122D01*
X0029472Y0007122D01*
X0028706Y0007122D02*
X0028708Y0007060D01*
X0028713Y0006999D01*
X0028723Y0006938D01*
X0028736Y0006877D01*
X0028752Y0006818D01*
X0028772Y0006760D01*
X0028796Y0006703D01*
X0028823Y0006647D01*
X0028853Y0006593D01*
X0028887Y0006541D01*
X0028923Y0006492D01*
X0028963Y0006444D01*
X0029005Y0006399D01*
X0029050Y0006357D01*
X0029098Y0006317D01*
X0029147Y0006281D01*
X0029199Y0006247D01*
X0029253Y0006217D01*
X0029309Y0006190D01*
X0029366Y0006166D01*
X0029424Y0006146D01*
X0029483Y0006130D01*
X0029544Y0006117D01*
X0029605Y0006107D01*
X0029666Y0006102D01*
X0029728Y0006100D01*
X0030956Y0006611D02*
X0030956Y0006867D01*
X0030958Y0006909D01*
X0030963Y0006951D01*
X0030972Y0006992D01*
X0030984Y0007033D01*
X0030999Y0007072D01*
X0031018Y0007110D01*
X0031039Y0007146D01*
X0031064Y0007181D01*
X0031091Y0007213D01*
X0031121Y0007243D01*
X0031153Y0007270D01*
X0031188Y0007295D01*
X0031224Y0007316D01*
X0031262Y0007335D01*
X0031301Y0007350D01*
X0031342Y0007362D01*
X0031383Y0007371D01*
X0031425Y0007376D01*
X0031467Y0007378D01*
X0032233Y0007378D01*
X0032233Y0008400D01*
X0030956Y0008400D01*
X0029983Y0007761D02*
X0029983Y0007633D01*
X0029981Y0007591D01*
X0029976Y0007549D01*
X0029967Y0007508D01*
X0029955Y0007467D01*
X0029940Y0007428D01*
X0029921Y0007390D01*
X0029900Y0007354D01*
X0029875Y0007319D01*
X0029848Y0007287D01*
X0029818Y0007257D01*
X0029786Y0007230D01*
X0029751Y0007205D01*
X0029715Y0007184D01*
X0029677Y0007165D01*
X0029638Y0007150D01*
X0029597Y0007138D01*
X0029556Y0007129D01*
X0029514Y0007124D01*
X0029472Y0007122D01*
X0029984Y0007761D02*
X0029982Y0007810D01*
X0029977Y0007859D01*
X0029967Y0007907D01*
X0029954Y0007954D01*
X0029938Y0008000D01*
X0029918Y0008045D01*
X0029894Y0008088D01*
X0029868Y0008129D01*
X0029838Y0008168D01*
X0029805Y0008204D01*
X0029770Y0008238D01*
X0029732Y0008269D01*
X0029692Y0008297D01*
X0029650Y0008322D01*
X0029606Y0008344D01*
X0029561Y0008362D01*
X0029514Y0008377D01*
X0029467Y0008388D01*
X0029418Y0008396D01*
X0029369Y0008400D01*
X0029321Y0008400D01*
X0029272Y0008396D01*
X0029223Y0008388D01*
X0029176Y0008377D01*
X0029129Y0008362D01*
X0029084Y0008344D01*
X0029040Y0008322D01*
X0028998Y0008297D01*
X0028958Y0008269D01*
X0028920Y0008238D01*
X0028885Y0008204D01*
X0028852Y0008168D01*
X0028822Y0008129D01*
X0028796Y0008088D01*
X0028772Y0008045D01*
X0028752Y0008000D01*
X0028736Y0007954D01*
X0028723Y0007907D01*
X0028713Y0007859D01*
X0028708Y0007810D01*
X0028706Y0007761D01*
X0030956Y0006611D02*
X0030958Y0006569D01*
X0030963Y0006527D01*
X0030972Y0006486D01*
X0030984Y0006445D01*
X0030999Y0006406D01*
X0031018Y0006368D01*
X0031039Y0006332D01*
X0031064Y0006297D01*
X0031091Y0006265D01*
X0031121Y0006235D01*
X0031153Y0006208D01*
X0031188Y0006183D01*
X0031224Y0006162D01*
X0031262Y0006143D01*
X0031301Y0006128D01*
X0031342Y0006116D01*
X0031383Y0006107D01*
X0031425Y0006102D01*
X0031467Y0006100D01*
X0032233Y0006100D01*
X0033206Y0006739D02*
X0033208Y0006690D01*
X0033213Y0006641D01*
X0033223Y0006593D01*
X0033236Y0006546D01*
X0033252Y0006500D01*
X0033272Y0006455D01*
X0033296Y0006412D01*
X0033322Y0006371D01*
X0033352Y0006332D01*
X0033385Y0006296D01*
X0033420Y0006262D01*
X0033458Y0006231D01*
X0033498Y0006203D01*
X0033540Y0006178D01*
X0033584Y0006156D01*
X0033629Y0006138D01*
X0033676Y0006123D01*
X0033723Y0006112D01*
X0033772Y0006104D01*
X0033821Y0006100D01*
X0033869Y0006100D01*
X0033918Y0006104D01*
X0033967Y0006112D01*
X0034014Y0006123D01*
X0034061Y0006138D01*
X0034106Y0006156D01*
X0034150Y0006178D01*
X0034192Y0006203D01*
X0034232Y0006231D01*
X0034270Y0006262D01*
X0034305Y0006296D01*
X0034338Y0006332D01*
X0034368Y0006371D01*
X0034394Y0006412D01*
X0034418Y0006455D01*
X0034438Y0006500D01*
X0034454Y0006546D01*
X0034467Y0006593D01*
X0034477Y0006641D01*
X0034482Y0006690D01*
X0034484Y0006739D01*
X0034482Y0006788D01*
X0034477Y0006837D01*
X0034467Y0006885D01*
X0034454Y0006932D01*
X0034438Y0006978D01*
X0034418Y0007023D01*
X0034394Y0007066D01*
X0034368Y0007107D01*
X0034338Y0007146D01*
X0034305Y0007182D01*
X0034270Y0007216D01*
X0034232Y0007247D01*
X0034192Y0007275D01*
X0034150Y0007300D01*
X0034106Y0007322D01*
X0034061Y0007340D01*
X0034014Y0007355D01*
X0033967Y0007366D01*
X0033918Y0007374D01*
X0033869Y0007378D01*
X0033821Y0007378D01*
X0033772Y0007374D01*
X0033723Y0007366D01*
X0033676Y0007355D01*
X0033629Y0007340D01*
X0033584Y0007322D01*
X0033540Y0007300D01*
X0033498Y0007275D01*
X0033458Y0007247D01*
X0033420Y0007216D01*
X0033385Y0007182D01*
X0033352Y0007146D01*
X0033322Y0007107D01*
X0033296Y0007066D01*
X0033272Y0007023D01*
X0033252Y0006978D01*
X0033236Y0006932D01*
X0033223Y0006885D01*
X0033213Y0006837D01*
X0033208Y0006788D01*
X0033206Y0006739D01*
X0033334Y0007889D02*
X0033336Y0007846D01*
X0033341Y0007803D01*
X0033350Y0007760D01*
X0033363Y0007719D01*
X0033379Y0007679D01*
X0033399Y0007640D01*
X0033422Y0007603D01*
X0033447Y0007568D01*
X0033476Y0007535D01*
X0033507Y0007505D01*
X0033541Y0007478D01*
X0033577Y0007454D01*
X0033615Y0007433D01*
X0033654Y0007415D01*
X0033695Y0007400D01*
X0033737Y0007389D01*
X0033780Y0007382D01*
X0033823Y0007378D01*
X0033867Y0007378D01*
X0033910Y0007382D01*
X0033953Y0007389D01*
X0033995Y0007400D01*
X0034036Y0007415D01*
X0034075Y0007433D01*
X0034113Y0007454D01*
X0034149Y0007478D01*
X0034183Y0007505D01*
X0034214Y0007535D01*
X0034243Y0007568D01*
X0034268Y0007603D01*
X0034291Y0007640D01*
X0034311Y0007679D01*
X0034327Y0007719D01*
X0034340Y0007760D01*
X0034349Y0007803D01*
X0034354Y0007846D01*
X0034356Y0007889D01*
X0034354Y0007932D01*
X0034349Y0007975D01*
X0034340Y0008018D01*
X0034327Y0008059D01*
X0034311Y0008099D01*
X0034291Y0008138D01*
X0034268Y0008175D01*
X0034243Y0008210D01*
X0034214Y0008243D01*
X0034183Y0008273D01*
X0034149Y0008300D01*
X0034113Y0008324D01*
X0034075Y0008345D01*
X0034036Y0008363D01*
X0033995Y0008378D01*
X0033953Y0008389D01*
X0033910Y0008396D01*
X0033867Y0008400D01*
X0033823Y0008400D01*
X0033780Y0008396D01*
X0033737Y0008389D01*
X0033695Y0008378D01*
X0033654Y0008363D01*
X0033615Y0008345D01*
X0033577Y0008324D01*
X0033541Y0008300D01*
X0033507Y0008273D01*
X0033476Y0008243D01*
X0033447Y0008210D01*
X0033422Y0008175D01*
X0033399Y0008138D01*
X0033379Y0008099D01*
X0033363Y0008059D01*
X0033350Y0008018D01*
X0033341Y0007975D01*
X0033336Y0007932D01*
X0033334Y0007889D01*
X0035456Y0006100D02*
X0036733Y0006100D01*
X0036095Y0006100D02*
X0036095Y0008400D01*
X0036733Y0007889D01*
X0037604Y0007633D02*
X0038371Y0007633D01*
X0038115Y0008400D02*
X0038115Y0006483D01*
X0038113Y0006445D01*
X0038108Y0006408D01*
X0038099Y0006372D01*
X0038086Y0006336D01*
X0038070Y0006302D01*
X0038050Y0006270D01*
X0038028Y0006240D01*
X0038003Y0006212D01*
X0037975Y0006187D01*
X0037945Y0006165D01*
X0037913Y0006145D01*
X0037879Y0006129D01*
X0037843Y0006116D01*
X0037807Y0006107D01*
X0037770Y0006102D01*
X0037732Y0006100D01*
X0037604Y0006100D01*
X0039183Y0006100D02*
X0039183Y0007250D01*
X0039184Y0007250D02*
X0039186Y0007288D01*
X0039191Y0007325D01*
X0039200Y0007361D01*
X0039213Y0007397D01*
X0039229Y0007431D01*
X0039249Y0007463D01*
X0039271Y0007493D01*
X0039296Y0007521D01*
X0039324Y0007546D01*
X0039354Y0007568D01*
X0039386Y0007588D01*
X0039420Y0007604D01*
X0039456Y0007617D01*
X0039492Y0007626D01*
X0039529Y0007631D01*
X0039567Y0007633D01*
X0040206Y0007633D01*
X0040206Y0006100D01*
X0041208Y0006100D02*
X0041847Y0006100D01*
X0041885Y0006102D01*
X0041922Y0006107D01*
X0041958Y0006116D01*
X0041994Y0006129D01*
X0042028Y0006145D01*
X0042060Y0006165D01*
X0042090Y0006187D01*
X0042118Y0006212D01*
X0042143Y0006240D01*
X0042165Y0006270D01*
X0042185Y0006302D01*
X0042201Y0006336D01*
X0042214Y0006372D01*
X0042223Y0006408D01*
X0042228Y0006445D01*
X0042230Y0006483D01*
X0042231Y0006483D02*
X0042231Y0007122D01*
X0042231Y0006867D02*
X0041208Y0006867D01*
X0041208Y0007122D01*
X0041209Y0007122D02*
X0041211Y0007165D01*
X0041216Y0007208D01*
X0041225Y0007251D01*
X0041238Y0007292D01*
X0041254Y0007332D01*
X0041274Y0007371D01*
X0041297Y0007408D01*
X0041322Y0007443D01*
X0041351Y0007476D01*
X0041382Y0007506D01*
X0041416Y0007533D01*
X0041452Y0007557D01*
X0041490Y0007578D01*
X0041529Y0007596D01*
X0041570Y0007611D01*
X0041612Y0007622D01*
X0041655Y0007629D01*
X0041698Y0007633D01*
X0041742Y0007633D01*
X0041785Y0007629D01*
X0041828Y0007622D01*
X0041870Y0007611D01*
X0041911Y0007596D01*
X0041950Y0007578D01*
X0041988Y0007557D01*
X0042024Y0007533D01*
X0042058Y0007506D01*
X0042089Y0007476D01*
X0042118Y0007443D01*
X0042143Y0007408D01*
X0042166Y0007371D01*
X0042186Y0007332D01*
X0042202Y0007292D01*
X0042215Y0007251D01*
X0042224Y0007208D01*
X0042229Y0007165D01*
X0042231Y0007122D01*
X0043278Y0007250D02*
X0043278Y0006100D01*
X0044045Y0006100D02*
X0044045Y0007633D01*
X0043661Y0007633D02*
X0044811Y0007633D01*
X0044811Y0006100D01*
X0045858Y0006100D02*
X0046497Y0006100D01*
X0046535Y0006102D01*
X0046572Y0006107D01*
X0046608Y0006116D01*
X0046644Y0006129D01*
X0046678Y0006145D01*
X0046710Y0006165D01*
X0046740Y0006187D01*
X0046768Y0006212D01*
X0046793Y0006240D01*
X0046815Y0006270D01*
X0046835Y0006302D01*
X0046851Y0006336D01*
X0046864Y0006372D01*
X0046873Y0006408D01*
X0046878Y0006445D01*
X0046880Y0006483D01*
X0046881Y0006483D02*
X0046881Y0007122D01*
X0046881Y0006867D02*
X0045858Y0006867D01*
X0045858Y0007122D01*
X0045860Y0007165D01*
X0045865Y0007208D01*
X0045874Y0007251D01*
X0045887Y0007292D01*
X0045903Y0007332D01*
X0045923Y0007371D01*
X0045946Y0007408D01*
X0045971Y0007443D01*
X0046000Y0007476D01*
X0046031Y0007506D01*
X0046065Y0007533D01*
X0046101Y0007557D01*
X0046139Y0007578D01*
X0046178Y0007596D01*
X0046219Y0007611D01*
X0046261Y0007622D01*
X0046304Y0007629D01*
X0046347Y0007633D01*
X0046391Y0007633D01*
X0046434Y0007629D01*
X0046477Y0007622D01*
X0046519Y0007611D01*
X0046560Y0007596D01*
X0046599Y0007578D01*
X0046637Y0007557D01*
X0046673Y0007533D01*
X0046707Y0007506D01*
X0046738Y0007476D01*
X0046767Y0007443D01*
X0046792Y0007408D01*
X0046815Y0007371D01*
X0046835Y0007332D01*
X0046851Y0007292D01*
X0046864Y0007251D01*
X0046873Y0007208D01*
X0046878Y0007165D01*
X0046880Y0007122D01*
X0047668Y0006100D02*
X0047706Y0006102D01*
X0047743Y0006107D01*
X0047779Y0006116D01*
X0047815Y0006129D01*
X0047849Y0006145D01*
X0047881Y0006165D01*
X0047911Y0006187D01*
X0047939Y0006212D01*
X0047964Y0006240D01*
X0047986Y0006270D01*
X0048006Y0006302D01*
X0048022Y0006336D01*
X0048035Y0006372D01*
X0048044Y0006408D01*
X0048049Y0006445D01*
X0048051Y0006483D01*
X0048051Y0008400D01*
X0048907Y0008400D02*
X0049929Y0008400D01*
X0049929Y0006100D01*
X0048907Y0006100D01*
X0049162Y0007378D02*
X0049929Y0007378D01*
X0052156Y0007442D02*
X0052156Y0007314D01*
X0052283Y0007314D01*
X0052283Y0007442D01*
X0052156Y0007442D01*
X0053133Y0007633D02*
X0053900Y0005333D01*
X0054156Y0005333D01*
X0053644Y0006100D02*
X0054156Y0007633D01*
X0055561Y0007378D02*
X0056200Y0007378D01*
X0055561Y0007378D02*
X0055518Y0007380D01*
X0055475Y0007385D01*
X0055432Y0007394D01*
X0055391Y0007407D01*
X0055351Y0007423D01*
X0055312Y0007443D01*
X0055275Y0007466D01*
X0055240Y0007491D01*
X0055207Y0007520D01*
X0055177Y0007551D01*
X0055150Y0007585D01*
X0055126Y0007621D01*
X0055105Y0007659D01*
X0055087Y0007698D01*
X0055072Y0007739D01*
X0055061Y0007781D01*
X0055054Y0007824D01*
X0055050Y0007867D01*
X0055050Y0007911D01*
X0055054Y0007954D01*
X0055061Y0007997D01*
X0055072Y0008039D01*
X0055087Y0008080D01*
X0055105Y0008119D01*
X0055126Y0008157D01*
X0055150Y0008193D01*
X0055177Y0008227D01*
X0055207Y0008258D01*
X0055240Y0008287D01*
X0055275Y0008312D01*
X0055312Y0008335D01*
X0055351Y0008355D01*
X0055391Y0008371D01*
X0055432Y0008384D01*
X0055475Y0008393D01*
X0055518Y0008398D01*
X0055561Y0008400D01*
X0056200Y0008400D01*
X0056200Y0006100D01*
X0055561Y0006100D01*
X0055512Y0006102D01*
X0055463Y0006107D01*
X0055415Y0006117D01*
X0055368Y0006130D01*
X0055322Y0006146D01*
X0055277Y0006166D01*
X0055234Y0006190D01*
X0055193Y0006216D01*
X0055154Y0006246D01*
X0055118Y0006279D01*
X0055084Y0006314D01*
X0055053Y0006352D01*
X0055025Y0006392D01*
X0055000Y0006434D01*
X0054978Y0006478D01*
X0054960Y0006523D01*
X0054945Y0006570D01*
X0054934Y0006617D01*
X0054926Y0006666D01*
X0054922Y0006715D01*
X0054922Y0006763D01*
X0054926Y0006812D01*
X0054934Y0006861D01*
X0054945Y0006908D01*
X0054960Y0006955D01*
X0054978Y0007000D01*
X0055000Y0007044D01*
X0055025Y0007086D01*
X0055053Y0007126D01*
X0055084Y0007164D01*
X0055118Y0007199D01*
X0055154Y0007232D01*
X0055193Y0007262D01*
X0055234Y0007288D01*
X0055277Y0007312D01*
X0055322Y0007332D01*
X0055368Y0007348D01*
X0055415Y0007361D01*
X0055463Y0007371D01*
X0055512Y0007376D01*
X0055561Y0007378D01*
X0052283Y0006419D02*
X0052156Y0006419D01*
X0052156Y0006292D01*
X0052283Y0006292D01*
X0052283Y0006419D01*
X0043661Y0007633D02*
X0043623Y0007631D01*
X0043586Y0007626D01*
X0043550Y0007617D01*
X0043514Y0007604D01*
X0043480Y0007588D01*
X0043448Y0007568D01*
X0043418Y0007546D01*
X0043390Y0007521D01*
X0043365Y0007493D01*
X0043343Y0007463D01*
X0043323Y0007431D01*
X0043307Y0007397D01*
X0043294Y0007361D01*
X0043285Y0007325D01*
X0043280Y0007288D01*
X0043278Y0007250D01*
X0039800Y0036800D02*
X0036400Y0039100D01*
X0035700Y0038700D01*
X0035000Y0038400D01*
X0034400Y0038100D01*
X0032000Y0044900D01*
X0032704Y0045236D01*
X0033332Y0045697D01*
X0033865Y0046267D01*
X0034282Y0046926D01*
X0034569Y0047651D01*
X0034717Y0048416D01*
X0034720Y0049196D01*
X0034578Y0049963D01*
X0034296Y0050690D01*
X0033884Y0051352D01*
X0033356Y0051926D01*
X0032731Y0052391D01*
X0032030Y0052733D01*
X0031277Y0052938D01*
X0030500Y0053000D01*
X0029709Y0052975D01*
X0028938Y0052802D01*
X0028212Y0052487D01*
X0027558Y0052042D01*
X0026999Y0051482D01*
X0026556Y0050828D01*
X0026242Y0050101D01*
X0026071Y0049329D01*
X0026047Y0048539D01*
X0026172Y0047758D01*
X0026441Y0047014D01*
X0026845Y0046334D01*
X0027369Y0045741D01*
X0027995Y0045258D01*
X0028700Y0044900D01*
X0026100Y0038200D01*
X0025400Y0038600D01*
X0024700Y0039000D01*
X0024000Y0039400D01*
X0020700Y0037000D01*
X0020000Y0037700D01*
X0019400Y0038300D01*
X0018800Y0039000D01*
X0018200Y0039700D01*
X0020600Y0043300D01*
X0020100Y0044100D01*
X0019800Y0045000D01*
X0019500Y0045900D01*
X0019300Y0046600D01*
X0015300Y0047300D01*
X0015200Y0048400D01*
X0015200Y0049300D01*
X0015300Y0050100D01*
X0015400Y0051100D01*
X0019500Y0051800D01*
X0019900Y0052900D01*
X0020100Y0053500D01*
X0020500Y0054200D01*
X0021000Y0055000D01*
X0018500Y0058200D01*
X0019100Y0058900D01*
X0019800Y0059600D01*
X0020600Y0060300D01*
X0021400Y0061000D01*
X0024800Y0058600D01*
X0025700Y0059000D01*
X0026500Y0059400D01*
X0027200Y0059600D01*
X0027900Y0059800D01*
X0028500Y0063900D01*
X0032300Y0063900D01*
X0033100Y0059800D01*
X0034200Y0059500D01*
X0035000Y0059100D01*
X0036200Y0058500D01*
X0039600Y0060900D01*
X0040300Y0060300D01*
X0041000Y0059600D01*
X0041700Y0058900D01*
X0042300Y0058200D01*
X0040000Y0054800D01*
X0040500Y0053900D01*
X0040900Y0053000D01*
X0041200Y0052200D01*
X0041500Y0051400D01*
X0045500Y0050800D01*
X0045600Y0049600D01*
X0045600Y0047000D01*
X0041400Y0046300D01*
X0041200Y0045300D01*
X0040800Y0044300D01*
X0040400Y0043400D01*
X0040000Y0042600D01*
X0042400Y0039400D01*
X0041800Y0038700D01*
X0041100Y0038000D01*
X0040400Y0037300D01*
X0039800Y0036800D01*
X0039982Y0036951D02*
X0039576Y0036951D01*
X0039283Y0037150D02*
X0040220Y0037150D01*
X0040448Y0037348D02*
X0038989Y0037348D01*
X0038696Y0037547D02*
X0040647Y0037547D01*
X0040845Y0037745D02*
X0038402Y0037745D01*
X0038109Y0037944D02*
X0041044Y0037944D01*
X0041242Y0038142D02*
X0037816Y0038142D01*
X0037522Y0038341D02*
X0041441Y0038341D01*
X0041639Y0038539D02*
X0037229Y0038539D01*
X0036935Y0038738D02*
X0041833Y0038738D01*
X0042003Y0038937D02*
X0036642Y0038937D01*
X0036114Y0038937D02*
X0034105Y0038937D01*
X0034035Y0039135D02*
X0042173Y0039135D01*
X0042343Y0039334D02*
X0033965Y0039334D01*
X0033895Y0039532D02*
X0042301Y0039532D01*
X0042152Y0039731D02*
X0033825Y0039731D01*
X0033754Y0039929D02*
X0042003Y0039929D01*
X0041854Y0040128D02*
X0033684Y0040128D01*
X0033614Y0040326D02*
X0041705Y0040326D01*
X0041557Y0040525D02*
X0033544Y0040525D01*
X0033474Y0040723D02*
X0041408Y0040723D01*
X0041259Y0040922D02*
X0033404Y0040922D01*
X0033334Y0041120D02*
X0041110Y0041120D01*
X0040961Y0041319D02*
X0033264Y0041319D01*
X0033194Y0041517D02*
X0040812Y0041517D01*
X0040663Y0041716D02*
X0033124Y0041716D01*
X0033054Y0041914D02*
X0040514Y0041914D01*
X0040365Y0042113D02*
X0032984Y0042113D01*
X0032914Y0042311D02*
X0040217Y0042311D01*
X0040068Y0042510D02*
X0032844Y0042510D01*
X0032774Y0042708D02*
X0040054Y0042708D01*
X0040153Y0042907D02*
X0032704Y0042907D01*
X0032633Y0043105D02*
X0040253Y0043105D01*
X0040352Y0043304D02*
X0032563Y0043304D01*
X0032493Y0043502D02*
X0040445Y0043502D01*
X0040534Y0043701D02*
X0032423Y0043701D01*
X0032353Y0043899D02*
X0040622Y0043899D01*
X0040710Y0044098D02*
X0032283Y0044098D01*
X0032213Y0044296D02*
X0040798Y0044296D01*
X0040878Y0044495D02*
X0032143Y0044495D01*
X0032073Y0044693D02*
X0040957Y0044693D01*
X0041037Y0044892D02*
X0032003Y0044892D01*
X0032398Y0045090D02*
X0041116Y0045090D01*
X0041196Y0045289D02*
X0032775Y0045289D01*
X0033046Y0045487D02*
X0041237Y0045487D01*
X0041277Y0045686D02*
X0033317Y0045686D01*
X0033507Y0045884D02*
X0041317Y0045884D01*
X0041357Y0046083D02*
X0033693Y0046083D01*
X0033874Y0046281D02*
X0041396Y0046281D01*
X0042480Y0046480D02*
X0033999Y0046480D01*
X0034125Y0046678D02*
X0043671Y0046678D01*
X0044862Y0046877D02*
X0034251Y0046877D01*
X0034341Y0047075D02*
X0045600Y0047075D01*
X0045600Y0047274D02*
X0034420Y0047274D01*
X0034499Y0047472D02*
X0045600Y0047472D01*
X0045600Y0047671D02*
X0034573Y0047671D01*
X0034611Y0047870D02*
X0045600Y0047870D01*
X0045600Y0048068D02*
X0034650Y0048068D01*
X0034688Y0048267D02*
X0045600Y0048267D01*
X0045600Y0048465D02*
X0034717Y0048465D01*
X0034718Y0048664D02*
X0045600Y0048664D01*
X0045600Y0048862D02*
X0034719Y0048862D01*
X0034719Y0049061D02*
X0045600Y0049061D01*
X0045600Y0049259D02*
X0034708Y0049259D01*
X0034672Y0049458D02*
X0045600Y0049458D01*
X0045595Y0049656D02*
X0034635Y0049656D01*
X0034598Y0049855D02*
X0045579Y0049855D01*
X0045562Y0050053D02*
X0034543Y0050053D01*
X0034466Y0050252D02*
X0045546Y0050252D01*
X0045529Y0050450D02*
X0034389Y0050450D01*
X0034312Y0050649D02*
X0045513Y0050649D01*
X0045185Y0050847D02*
X0034198Y0050847D01*
X0034074Y0051046D02*
X0043862Y0051046D01*
X0042539Y0051244D02*
X0033951Y0051244D01*
X0033800Y0051443D02*
X0041484Y0051443D01*
X0041410Y0051641D02*
X0033618Y0051641D01*
X0033435Y0051840D02*
X0041335Y0051840D01*
X0041261Y0052038D02*
X0033205Y0052038D01*
X0032938Y0052237D02*
X0041186Y0052237D01*
X0041112Y0052435D02*
X0032640Y0052435D01*
X0032233Y0052634D02*
X0041037Y0052634D01*
X0040963Y0052832D02*
X0031665Y0052832D01*
X0029074Y0052832D02*
X0019875Y0052832D01*
X0019944Y0053031D02*
X0040886Y0053031D01*
X0040798Y0053229D02*
X0020010Y0053229D01*
X0020076Y0053428D02*
X0040710Y0053428D01*
X0040622Y0053626D02*
X0020172Y0053626D01*
X0020286Y0053825D02*
X0040533Y0053825D01*
X0040431Y0054023D02*
X0020399Y0054023D01*
X0020514Y0054222D02*
X0040321Y0054222D01*
X0040211Y0054420D02*
X0020638Y0054420D01*
X0020762Y0054619D02*
X0040101Y0054619D01*
X0040012Y0054817D02*
X0020886Y0054817D01*
X0020988Y0055016D02*
X0040146Y0055016D01*
X0040280Y0055214D02*
X0020832Y0055214D01*
X0020677Y0055413D02*
X0040415Y0055413D01*
X0040549Y0055611D02*
X0020522Y0055611D01*
X0020367Y0055810D02*
X0040683Y0055810D01*
X0040818Y0056008D02*
X0020212Y0056008D01*
X0020057Y0056207D02*
X0040952Y0056207D01*
X0041086Y0056405D02*
X0019902Y0056405D01*
X0019747Y0056604D02*
X0041220Y0056604D01*
X0041355Y0056803D02*
X0019592Y0056803D01*
X0019437Y0057001D02*
X0041489Y0057001D01*
X0041623Y0057200D02*
X0019282Y0057200D01*
X0019127Y0057398D02*
X0041758Y0057398D01*
X0041892Y0057597D02*
X0018971Y0057597D01*
X0018816Y0057795D02*
X0042026Y0057795D01*
X0042160Y0057994D02*
X0018661Y0057994D01*
X0018506Y0058192D02*
X0042295Y0058192D01*
X0042137Y0058391D02*
X0018663Y0058391D01*
X0018834Y0058589D02*
X0036022Y0058589D01*
X0036326Y0058589D02*
X0041966Y0058589D01*
X0041796Y0058788D02*
X0036607Y0058788D01*
X0036889Y0058986D02*
X0041614Y0058986D01*
X0041415Y0059185D02*
X0037170Y0059185D01*
X0037451Y0059383D02*
X0041217Y0059383D01*
X0041018Y0059582D02*
X0037732Y0059582D01*
X0038014Y0059780D02*
X0040820Y0059780D01*
X0040621Y0059979D02*
X0038295Y0059979D01*
X0038576Y0060177D02*
X0040423Y0060177D01*
X0040212Y0060376D02*
X0038857Y0060376D01*
X0039138Y0060574D02*
X0039980Y0060574D01*
X0039748Y0060773D02*
X0039420Y0060773D01*
X0035625Y0058788D02*
X0025222Y0058788D01*
X0025669Y0058986D02*
X0035228Y0058986D01*
X0034831Y0059185D02*
X0026069Y0059185D01*
X0026466Y0059383D02*
X0034434Y0059383D01*
X0033901Y0059582D02*
X0027136Y0059582D01*
X0027831Y0059780D02*
X0033173Y0059780D01*
X0033065Y0059979D02*
X0027926Y0059979D01*
X0027955Y0060177D02*
X0033026Y0060177D01*
X0032988Y0060376D02*
X0027984Y0060376D01*
X0028013Y0060574D02*
X0032949Y0060574D01*
X0032910Y0060773D02*
X0028042Y0060773D01*
X0028071Y0060971D02*
X0032871Y0060971D01*
X0032833Y0061170D02*
X0028100Y0061170D01*
X0028130Y0061368D02*
X0032794Y0061368D01*
X0032755Y0061567D02*
X0028159Y0061567D01*
X0028188Y0061765D02*
X0032717Y0061765D01*
X0032678Y0061964D02*
X0028217Y0061964D01*
X0028246Y0062162D02*
X0032639Y0062162D01*
X0032600Y0062361D02*
X0028275Y0062361D01*
X0028304Y0062559D02*
X0032562Y0062559D01*
X0032523Y0062758D02*
X0028333Y0062758D01*
X0028362Y0062956D02*
X0032484Y0062956D01*
X0032445Y0063155D02*
X0028391Y0063155D01*
X0028420Y0063353D02*
X0032407Y0063353D01*
X0032368Y0063552D02*
X0028449Y0063552D01*
X0028478Y0063750D02*
X0032329Y0063750D01*
X0024534Y0058788D02*
X0019004Y0058788D01*
X0019186Y0058986D02*
X0024253Y0058986D01*
X0023972Y0059185D02*
X0019385Y0059185D01*
X0019583Y0059383D02*
X0023691Y0059383D01*
X0023409Y0059582D02*
X0019782Y0059582D01*
X0020006Y0059780D02*
X0023128Y0059780D01*
X0022847Y0059979D02*
X0020233Y0059979D01*
X0020460Y0060177D02*
X0022566Y0060177D01*
X0022284Y0060376D02*
X0020687Y0060376D01*
X0020913Y0060574D02*
X0022003Y0060574D01*
X0021722Y0060773D02*
X0021140Y0060773D01*
X0021367Y0060971D02*
X0021441Y0060971D01*
X0019803Y0052634D02*
X0028550Y0052634D01*
X0028136Y0052435D02*
X0019731Y0052435D01*
X0019659Y0052237D02*
X0027844Y0052237D01*
X0027555Y0052038D02*
X0019587Y0052038D01*
X0019514Y0051840D02*
X0027356Y0051840D01*
X0027158Y0051641D02*
X0018570Y0051641D01*
X0017407Y0051443D02*
X0026973Y0051443D01*
X0026838Y0051244D02*
X0016245Y0051244D01*
X0015395Y0051046D02*
X0026704Y0051046D01*
X0026569Y0050847D02*
X0015375Y0050847D01*
X0015355Y0050649D02*
X0026478Y0050649D01*
X0026393Y0050450D02*
X0015335Y0050450D01*
X0015315Y0050252D02*
X0026307Y0050252D01*
X0026232Y0050053D02*
X0015294Y0050053D01*
X0015269Y0049855D02*
X0026187Y0049855D01*
X0026143Y0049656D02*
X0015245Y0049656D01*
X0015220Y0049458D02*
X0026099Y0049458D01*
X0026069Y0049259D02*
X0015200Y0049259D01*
X0015200Y0049061D02*
X0026063Y0049061D01*
X0026057Y0048862D02*
X0015200Y0048862D01*
X0015200Y0048664D02*
X0026051Y0048664D01*
X0026059Y0048465D02*
X0015200Y0048465D01*
X0015212Y0048267D02*
X0026090Y0048267D01*
X0026122Y0048068D02*
X0015230Y0048068D01*
X0015248Y0047870D02*
X0026154Y0047870D01*
X0026203Y0047671D02*
X0015266Y0047671D01*
X0015284Y0047472D02*
X0026275Y0047472D01*
X0026347Y0047274D02*
X0015449Y0047274D01*
X0016583Y0047075D02*
X0026419Y0047075D01*
X0026522Y0046877D02*
X0017717Y0046877D01*
X0018852Y0046678D02*
X0026640Y0046678D01*
X0026758Y0046480D02*
X0019334Y0046480D01*
X0019391Y0046281D02*
X0026891Y0046281D01*
X0027066Y0046083D02*
X0019448Y0046083D01*
X0019505Y0045884D02*
X0027242Y0045884D01*
X0027440Y0045686D02*
X0019571Y0045686D01*
X0019638Y0045487D02*
X0027697Y0045487D01*
X0027954Y0045289D02*
X0019704Y0045289D01*
X0019770Y0045090D02*
X0028325Y0045090D01*
X0028697Y0044892D02*
X0019836Y0044892D01*
X0019902Y0044693D02*
X0028620Y0044693D01*
X0028543Y0044495D02*
X0019968Y0044495D01*
X0020035Y0044296D02*
X0028466Y0044296D01*
X0028389Y0044098D02*
X0020101Y0044098D01*
X0020225Y0043899D02*
X0028312Y0043899D01*
X0028235Y0043701D02*
X0020350Y0043701D01*
X0020474Y0043502D02*
X0028158Y0043502D01*
X0028081Y0043304D02*
X0020598Y0043304D01*
X0020470Y0043105D02*
X0028004Y0043105D01*
X0027927Y0042907D02*
X0020338Y0042907D01*
X0020205Y0042708D02*
X0027849Y0042708D01*
X0027772Y0042510D02*
X0020073Y0042510D01*
X0019941Y0042311D02*
X0027695Y0042311D01*
X0027618Y0042113D02*
X0019808Y0042113D01*
X0019676Y0041914D02*
X0027541Y0041914D01*
X0027464Y0041716D02*
X0019544Y0041716D01*
X0019411Y0041517D02*
X0027387Y0041517D01*
X0027310Y0041319D02*
X0019279Y0041319D01*
X0019147Y0041120D02*
X0027233Y0041120D01*
X0027156Y0040922D02*
X0019014Y0040922D01*
X0018882Y0040723D02*
X0027079Y0040723D01*
X0027002Y0040525D02*
X0018750Y0040525D01*
X0018617Y0040326D02*
X0026925Y0040326D01*
X0026848Y0040128D02*
X0018485Y0040128D01*
X0018353Y0039929D02*
X0026771Y0039929D01*
X0026694Y0039731D02*
X0018220Y0039731D01*
X0018344Y0039532D02*
X0026617Y0039532D01*
X0026540Y0039334D02*
X0024116Y0039334D01*
X0023909Y0039334D02*
X0018514Y0039334D01*
X0018684Y0039135D02*
X0023636Y0039135D01*
X0023363Y0038937D02*
X0018854Y0038937D01*
X0019025Y0038738D02*
X0023090Y0038738D01*
X0022817Y0038539D02*
X0019195Y0038539D01*
X0019365Y0038341D02*
X0022544Y0038341D01*
X0022271Y0038142D02*
X0019558Y0038142D01*
X0019756Y0037944D02*
X0021998Y0037944D01*
X0021725Y0037745D02*
X0019955Y0037745D01*
X0020153Y0037547D02*
X0021452Y0037547D01*
X0021179Y0037348D02*
X0020352Y0037348D01*
X0020550Y0037150D02*
X0020906Y0037150D01*
X0024464Y0039135D02*
X0026463Y0039135D01*
X0026386Y0038937D02*
X0024811Y0038937D01*
X0025159Y0038738D02*
X0026309Y0038738D01*
X0026232Y0038539D02*
X0025506Y0038539D01*
X0025853Y0038341D02*
X0026155Y0038341D01*
X0034175Y0038738D02*
X0035766Y0038738D01*
X0035325Y0038539D02*
X0034245Y0038539D01*
X0034315Y0038341D02*
X0034882Y0038341D01*
X0034485Y0038142D02*
X0034385Y0038142D01*
D12*
X0032444Y0029856D02*
X0032321Y0029814D01*
X0032196Y0029775D01*
X0032071Y0029740D01*
X0031944Y0029709D01*
X0031816Y0029682D01*
X0031688Y0029659D01*
X0031559Y0029639D01*
X0031429Y0029624D01*
X0031300Y0029612D01*
X0031169Y0029604D01*
X0031039Y0029600D01*
X0031038Y0029600D02*
X0030987Y0029601D01*
X0030937Y0029606D01*
X0030886Y0029616D01*
X0030837Y0029628D01*
X0030789Y0029645D01*
X0030742Y0029666D01*
X0030696Y0029689D01*
X0030653Y0029717D01*
X0030612Y0029747D01*
X0030574Y0029781D01*
X0030538Y0029817D01*
X0030505Y0029857D01*
X0030475Y0029898D01*
X0030449Y0029942D01*
X0030426Y0029987D01*
X0030407Y0030035D01*
X0030391Y0030083D01*
X0030379Y0030133D01*
X0030371Y0030183D01*
X0030367Y0030234D01*
X0030366Y0030285D01*
X0030370Y0030336D01*
X0030378Y0030387D01*
X0030389Y0030437D01*
X0030404Y0030486D01*
X0030423Y0030533D01*
X0030446Y0030579D01*
X0030472Y0030623D01*
X0030501Y0030665D01*
X0030534Y0030704D01*
X0030569Y0030741D01*
X0030608Y0030775D01*
X0030648Y0030806D01*
X0030691Y0030833D01*
X0030736Y0030858D01*
X0030783Y0030879D01*
X0030783Y0030878D02*
X0032061Y0031389D01*
X0032061Y0031388D02*
X0032108Y0031409D01*
X0032153Y0031434D01*
X0032196Y0031461D01*
X0032236Y0031492D01*
X0032275Y0031526D01*
X0032310Y0031563D01*
X0032343Y0031602D01*
X0032372Y0031644D01*
X0032398Y0031688D01*
X0032421Y0031734D01*
X0032440Y0031781D01*
X0032455Y0031830D01*
X0032466Y0031880D01*
X0032474Y0031931D01*
X0032478Y0031982D01*
X0032477Y0032033D01*
X0032473Y0032084D01*
X0032465Y0032134D01*
X0032453Y0032184D01*
X0032437Y0032232D01*
X0032418Y0032280D01*
X0032395Y0032325D01*
X0032369Y0032369D01*
X0032339Y0032410D01*
X0032306Y0032450D01*
X0032270Y0032486D01*
X0032232Y0032520D01*
X0032191Y0032550D01*
X0032148Y0032578D01*
X0032102Y0032601D01*
X0032055Y0032622D01*
X0032007Y0032639D01*
X0031958Y0032651D01*
X0031907Y0032661D01*
X0031857Y0032666D01*
X0031806Y0032667D01*
X0031707Y0032664D01*
X0031608Y0032657D01*
X0031510Y0032647D01*
X0031412Y0032634D01*
X0031314Y0032618D01*
X0031217Y0032598D01*
X0031121Y0032575D01*
X0031026Y0032548D01*
X0030932Y0032519D01*
X0030839Y0032486D01*
X0030746Y0032450D01*
X0030656Y0032411D01*
X0028544Y0031644D02*
X0028544Y0030622D01*
X0028542Y0030559D01*
X0028536Y0030496D01*
X0028527Y0030434D01*
X0028513Y0030373D01*
X0028496Y0030312D01*
X0028475Y0030253D01*
X0028450Y0030195D01*
X0028422Y0030138D01*
X0028391Y0030084D01*
X0028356Y0030032D01*
X0028318Y0029981D01*
X0028277Y0029933D01*
X0028233Y0029888D01*
X0028187Y0029846D01*
X0028138Y0029806D01*
X0028087Y0029770D01*
X0028033Y0029737D01*
X0027978Y0029707D01*
X0027920Y0029681D01*
X0027862Y0029658D01*
X0027802Y0029639D01*
X0027741Y0029624D01*
X0027679Y0029612D01*
X0027616Y0029604D01*
X0027553Y0029600D01*
X0027491Y0029600D01*
X0027428Y0029604D01*
X0027365Y0029612D01*
X0027303Y0029624D01*
X0027242Y0029639D01*
X0027182Y0029658D01*
X0027124Y0029681D01*
X0027066Y0029707D01*
X0027011Y0029737D01*
X0026957Y0029770D01*
X0026906Y0029806D01*
X0026857Y0029846D01*
X0026811Y0029888D01*
X0026767Y0029933D01*
X0026726Y0029981D01*
X0026688Y0030032D01*
X0026653Y0030084D01*
X0026622Y0030138D01*
X0026594Y0030195D01*
X0026569Y0030253D01*
X0026548Y0030312D01*
X0026531Y0030373D01*
X0026517Y0030434D01*
X0026508Y0030496D01*
X0026502Y0030559D01*
X0026500Y0030622D01*
X0026500Y0031644D01*
X0026502Y0031707D01*
X0026508Y0031770D01*
X0026517Y0031832D01*
X0026531Y0031893D01*
X0026548Y0031954D01*
X0026569Y0032013D01*
X0026594Y0032071D01*
X0026622Y0032128D01*
X0026653Y0032182D01*
X0026688Y0032234D01*
X0026726Y0032285D01*
X0026767Y0032333D01*
X0026811Y0032378D01*
X0026857Y0032420D01*
X0026906Y0032460D01*
X0026957Y0032496D01*
X0027011Y0032529D01*
X0027066Y0032559D01*
X0027124Y0032585D01*
X0027182Y0032608D01*
X0027242Y0032627D01*
X0027303Y0032642D01*
X0027365Y0032654D01*
X0027428Y0032662D01*
X0027491Y0032666D01*
X0027553Y0032666D01*
X0027616Y0032662D01*
X0027679Y0032654D01*
X0027741Y0032642D01*
X0027802Y0032627D01*
X0027862Y0032608D01*
X0027920Y0032585D01*
X0027978Y0032559D01*
X0028033Y0032529D01*
X0028087Y0032496D01*
X0028138Y0032460D01*
X0028187Y0032420D01*
X0028233Y0032378D01*
X0028277Y0032333D01*
X0028318Y0032285D01*
X0028356Y0032234D01*
X0028391Y0032182D01*
X0028422Y0032128D01*
X0028450Y0032071D01*
X0028475Y0032013D01*
X0028496Y0031954D01*
X0028513Y0031893D01*
X0028527Y0031832D01*
X0028536Y0031770D01*
X0028542Y0031707D01*
X0028544Y0031644D01*
X0024494Y0032667D02*
X0024494Y0030367D01*
X0024495Y0030367D02*
X0024493Y0030312D01*
X0024487Y0030258D01*
X0024477Y0030204D01*
X0024464Y0030151D01*
X0024447Y0030099D01*
X0024426Y0030048D01*
X0024401Y0029999D01*
X0024373Y0029952D01*
X0024342Y0029907D01*
X0024308Y0029865D01*
X0024270Y0029825D01*
X0024230Y0029787D01*
X0024188Y0029753D01*
X0024143Y0029722D01*
X0024096Y0029694D01*
X0024047Y0029669D01*
X0023996Y0029648D01*
X0023944Y0029631D01*
X0023891Y0029618D01*
X0023837Y0029608D01*
X0023783Y0029602D01*
X0023728Y0029600D01*
X0022450Y0029600D01*
X0022450Y0032667D01*
X0020268Y0032667D02*
X0018735Y0032667D01*
X0018735Y0032156D01*
X0017289Y0031900D02*
X0017289Y0030367D01*
X0017290Y0030367D02*
X0017288Y0030312D01*
X0017282Y0030258D01*
X0017272Y0030204D01*
X0017259Y0030151D01*
X0017242Y0030099D01*
X0017221Y0030048D01*
X0017196Y0029999D01*
X0017168Y0029952D01*
X0017137Y0029907D01*
X0017103Y0029865D01*
X0017065Y0029825D01*
X0017025Y0029787D01*
X0016983Y0029753D01*
X0016938Y0029722D01*
X0016891Y0029694D01*
X0016842Y0029669D01*
X0016791Y0029648D01*
X0016739Y0029631D01*
X0016686Y0029618D01*
X0016632Y0029608D01*
X0016578Y0029602D01*
X0016523Y0029600D01*
X0015500Y0029600D01*
X0013844Y0030367D02*
X0013844Y0031644D01*
X0013844Y0031133D02*
X0011800Y0031133D01*
X0011800Y0031644D01*
X0011802Y0031707D01*
X0011808Y0031770D01*
X0011817Y0031832D01*
X0011831Y0031893D01*
X0011848Y0031954D01*
X0011869Y0032013D01*
X0011894Y0032071D01*
X0011922Y0032128D01*
X0011953Y0032182D01*
X0011988Y0032234D01*
X0012026Y0032285D01*
X0012067Y0032333D01*
X0012111Y0032378D01*
X0012157Y0032420D01*
X0012206Y0032460D01*
X0012257Y0032496D01*
X0012311Y0032529D01*
X0012366Y0032559D01*
X0012424Y0032585D01*
X0012482Y0032608D01*
X0012542Y0032627D01*
X0012603Y0032642D01*
X0012665Y0032654D01*
X0012728Y0032662D01*
X0012791Y0032666D01*
X0012853Y0032666D01*
X0012916Y0032662D01*
X0012979Y0032654D01*
X0013041Y0032642D01*
X0013102Y0032627D01*
X0013162Y0032608D01*
X0013220Y0032585D01*
X0013278Y0032559D01*
X0013333Y0032529D01*
X0013387Y0032496D01*
X0013438Y0032460D01*
X0013487Y0032420D01*
X0013533Y0032378D01*
X0013577Y0032333D01*
X0013618Y0032285D01*
X0013656Y0032234D01*
X0013691Y0032182D01*
X0013722Y0032128D01*
X0013750Y0032071D01*
X0013775Y0032013D01*
X0013796Y0031954D01*
X0013813Y0031893D01*
X0013827Y0031832D01*
X0013836Y0031770D01*
X0013842Y0031707D01*
X0013844Y0031644D01*
X0013845Y0030367D02*
X0013843Y0030312D01*
X0013837Y0030258D01*
X0013827Y0030204D01*
X0013814Y0030151D01*
X0013797Y0030099D01*
X0013776Y0030048D01*
X0013751Y0029999D01*
X0013723Y0029952D01*
X0013692Y0029907D01*
X0013658Y0029865D01*
X0013620Y0029825D01*
X0013580Y0029787D01*
X0013538Y0029753D01*
X0013493Y0029722D01*
X0013446Y0029694D01*
X0013397Y0029669D01*
X0013346Y0029648D01*
X0013294Y0029631D01*
X0013241Y0029618D01*
X0013187Y0029608D01*
X0013133Y0029602D01*
X0013078Y0029600D01*
X0011800Y0029600D01*
X0015500Y0032667D02*
X0016523Y0032667D01*
X0016578Y0032665D01*
X0016632Y0032659D01*
X0016686Y0032649D01*
X0016739Y0032636D01*
X0016791Y0032619D01*
X0016842Y0032598D01*
X0016891Y0032573D01*
X0016938Y0032545D01*
X0016983Y0032514D01*
X0017025Y0032480D01*
X0017065Y0032442D01*
X0017103Y0032402D01*
X0017137Y0032360D01*
X0017168Y0032315D01*
X0017196Y0032268D01*
X0017221Y0032219D01*
X0017242Y0032168D01*
X0017259Y0032116D01*
X0017272Y0032063D01*
X0017282Y0032009D01*
X0017288Y0031955D01*
X0017290Y0031900D01*
X0020268Y0032667D02*
X0020268Y0029600D01*
X0020868Y0025167D02*
X0019335Y0025167D01*
X0019335Y0024656D01*
X0017894Y0024144D02*
X0017894Y0022867D01*
X0017895Y0022867D02*
X0017893Y0022812D01*
X0017887Y0022758D01*
X0017877Y0022704D01*
X0017864Y0022651D01*
X0017847Y0022599D01*
X0017826Y0022548D01*
X0017801Y0022499D01*
X0017773Y0022452D01*
X0017742Y0022407D01*
X0017708Y0022365D01*
X0017670Y0022325D01*
X0017630Y0022287D01*
X0017588Y0022253D01*
X0017543Y0022222D01*
X0017496Y0022194D01*
X0017447Y0022169D01*
X0017396Y0022148D01*
X0017344Y0022131D01*
X0017291Y0022118D01*
X0017237Y0022108D01*
X0017183Y0022102D01*
X0017128Y0022100D01*
X0015850Y0022100D01*
X0015850Y0023633D02*
X0017894Y0023633D01*
X0017894Y0024144D02*
X0017892Y0024207D01*
X0017886Y0024270D01*
X0017877Y0024332D01*
X0017863Y0024393D01*
X0017846Y0024454D01*
X0017825Y0024513D01*
X0017800Y0024571D01*
X0017772Y0024628D01*
X0017741Y0024682D01*
X0017706Y0024734D01*
X0017668Y0024785D01*
X0017627Y0024833D01*
X0017583Y0024878D01*
X0017537Y0024920D01*
X0017488Y0024960D01*
X0017437Y0024996D01*
X0017383Y0025029D01*
X0017328Y0025059D01*
X0017270Y0025085D01*
X0017212Y0025108D01*
X0017152Y0025127D01*
X0017091Y0025142D01*
X0017029Y0025154D01*
X0016966Y0025162D01*
X0016903Y0025166D01*
X0016841Y0025166D01*
X0016778Y0025162D01*
X0016715Y0025154D01*
X0016653Y0025142D01*
X0016592Y0025127D01*
X0016532Y0025108D01*
X0016474Y0025085D01*
X0016416Y0025059D01*
X0016361Y0025029D01*
X0016307Y0024996D01*
X0016256Y0024960D01*
X0016207Y0024920D01*
X0016161Y0024878D01*
X0016117Y0024833D01*
X0016076Y0024785D01*
X0016038Y0024734D01*
X0016003Y0024682D01*
X0015972Y0024628D01*
X0015944Y0024571D01*
X0015919Y0024513D01*
X0015898Y0024454D01*
X0015881Y0024393D01*
X0015867Y0024332D01*
X0015858Y0024270D01*
X0015852Y0024207D01*
X0015850Y0024144D01*
X0015850Y0023633D01*
X0020868Y0022100D02*
X0020868Y0025167D01*
X0023073Y0024400D02*
X0023073Y0022100D01*
X0024223Y0022100D01*
X0024281Y0022102D01*
X0024340Y0022108D01*
X0024397Y0022117D01*
X0024454Y0022130D01*
X0024510Y0022147D01*
X0024565Y0022168D01*
X0024618Y0022192D01*
X0024670Y0022220D01*
X0024720Y0022251D01*
X0024767Y0022285D01*
X0024812Y0022322D01*
X0024855Y0022362D01*
X0024895Y0022405D01*
X0024932Y0022450D01*
X0024966Y0022497D01*
X0024997Y0022547D01*
X0025025Y0022599D01*
X0025049Y0022652D01*
X0025070Y0022707D01*
X0025087Y0022763D01*
X0025100Y0022820D01*
X0025109Y0022877D01*
X0025115Y0022936D01*
X0025117Y0022994D01*
X0025115Y0023052D01*
X0025109Y0023111D01*
X0025100Y0023168D01*
X0025087Y0023225D01*
X0025070Y0023281D01*
X0025049Y0023336D01*
X0025025Y0023389D01*
X0024997Y0023441D01*
X0024966Y0023491D01*
X0024932Y0023538D01*
X0024895Y0023583D01*
X0024855Y0023626D01*
X0024812Y0023666D01*
X0024767Y0023703D01*
X0024720Y0023737D01*
X0024670Y0023768D01*
X0024618Y0023796D01*
X0024565Y0023820D01*
X0024510Y0023841D01*
X0024454Y0023858D01*
X0024397Y0023871D01*
X0024340Y0023880D01*
X0024281Y0023886D01*
X0024223Y0023888D01*
X0024223Y0023889D02*
X0023073Y0023889D01*
X0023073Y0024400D02*
X0023075Y0024452D01*
X0023080Y0024504D01*
X0023089Y0024556D01*
X0023101Y0024607D01*
X0023117Y0024657D01*
X0023137Y0024706D01*
X0023159Y0024753D01*
X0023185Y0024799D01*
X0023213Y0024842D01*
X0023245Y0024884D01*
X0023279Y0024924D01*
X0023316Y0024961D01*
X0023356Y0024995D01*
X0023398Y0025027D01*
X0023441Y0025055D01*
X0023487Y0025081D01*
X0023534Y0025104D01*
X0023583Y0025123D01*
X0023633Y0025139D01*
X0023684Y0025151D01*
X0023736Y0025160D01*
X0023788Y0025165D01*
X0023840Y0025167D01*
X0024862Y0025167D01*
X0026889Y0025167D02*
X0027656Y0022100D01*
X0028422Y0024144D01*
X0029189Y0022100D01*
X0029956Y0025167D01*
X0031923Y0025167D02*
X0033201Y0025167D01*
X0033256Y0025165D01*
X0033310Y0025159D01*
X0033364Y0025149D01*
X0033417Y0025136D01*
X0033469Y0025119D01*
X0033520Y0025098D01*
X0033569Y0025073D01*
X0033616Y0025045D01*
X0033661Y0025014D01*
X0033703Y0024980D01*
X0033743Y0024942D01*
X0033781Y0024902D01*
X0033815Y0024860D01*
X0033846Y0024815D01*
X0033874Y0024768D01*
X0033899Y0024719D01*
X0033920Y0024668D01*
X0033937Y0024616D01*
X0033950Y0024563D01*
X0033960Y0024509D01*
X0033966Y0024455D01*
X0033968Y0024400D01*
X0033968Y0022867D01*
X0033966Y0022812D01*
X0033960Y0022758D01*
X0033950Y0022704D01*
X0033937Y0022651D01*
X0033920Y0022599D01*
X0033899Y0022548D01*
X0033874Y0022499D01*
X0033846Y0022452D01*
X0033815Y0022407D01*
X0033781Y0022365D01*
X0033743Y0022325D01*
X0033703Y0022287D01*
X0033661Y0022253D01*
X0033616Y0022222D01*
X0033569Y0022194D01*
X0033520Y0022169D01*
X0033469Y0022148D01*
X0033417Y0022131D01*
X0033364Y0022118D01*
X0033310Y0022108D01*
X0033256Y0022102D01*
X0033201Y0022100D01*
X0031923Y0022100D01*
X0031923Y0026700D01*
X0035385Y0025167D02*
X0035385Y0024656D01*
X0035385Y0025167D02*
X0036918Y0025167D01*
X0036918Y0022100D01*
X0039123Y0022100D02*
X0039123Y0024400D01*
X0039123Y0023889D02*
X0040273Y0023889D01*
X0039123Y0024400D02*
X0039125Y0024452D01*
X0039130Y0024504D01*
X0039139Y0024556D01*
X0039151Y0024607D01*
X0039167Y0024657D01*
X0039187Y0024706D01*
X0039209Y0024753D01*
X0039235Y0024799D01*
X0039263Y0024842D01*
X0039295Y0024884D01*
X0039329Y0024924D01*
X0039366Y0024961D01*
X0039406Y0024995D01*
X0039448Y0025027D01*
X0039491Y0025055D01*
X0039537Y0025081D01*
X0039584Y0025104D01*
X0039633Y0025123D01*
X0039683Y0025139D01*
X0039734Y0025151D01*
X0039786Y0025160D01*
X0039838Y0025165D01*
X0039890Y0025167D01*
X0040912Y0025167D01*
X0040273Y0023888D02*
X0040331Y0023886D01*
X0040390Y0023880D01*
X0040447Y0023871D01*
X0040504Y0023858D01*
X0040560Y0023841D01*
X0040615Y0023820D01*
X0040668Y0023796D01*
X0040720Y0023768D01*
X0040770Y0023737D01*
X0040817Y0023703D01*
X0040862Y0023666D01*
X0040905Y0023626D01*
X0040945Y0023583D01*
X0040982Y0023538D01*
X0041016Y0023491D01*
X0041047Y0023441D01*
X0041075Y0023389D01*
X0041099Y0023336D01*
X0041120Y0023281D01*
X0041137Y0023225D01*
X0041150Y0023168D01*
X0041159Y0023111D01*
X0041165Y0023052D01*
X0041167Y0022994D01*
X0041165Y0022936D01*
X0041159Y0022877D01*
X0041150Y0022820D01*
X0041137Y0022763D01*
X0041120Y0022707D01*
X0041099Y0022652D01*
X0041075Y0022599D01*
X0041047Y0022547D01*
X0041016Y0022497D01*
X0040982Y0022450D01*
X0040945Y0022405D01*
X0040905Y0022362D01*
X0040862Y0022322D01*
X0040817Y0022285D01*
X0040770Y0022251D01*
X0040720Y0022220D01*
X0040668Y0022192D01*
X0040615Y0022168D01*
X0040560Y0022147D01*
X0040504Y0022130D01*
X0040447Y0022117D01*
X0040390Y0022108D01*
X0040331Y0022102D01*
X0040273Y0022100D01*
X0039123Y0022100D01*
X0043150Y0022100D02*
X0043150Y0024400D01*
X0043152Y0024455D01*
X0043158Y0024509D01*
X0043168Y0024563D01*
X0043181Y0024616D01*
X0043198Y0024668D01*
X0043219Y0024719D01*
X0043244Y0024768D01*
X0043272Y0024815D01*
X0043303Y0024860D01*
X0043337Y0024902D01*
X0043375Y0024942D01*
X0043415Y0024980D01*
X0043457Y0025014D01*
X0043502Y0025045D01*
X0043549Y0025073D01*
X0043598Y0025098D01*
X0043649Y0025119D01*
X0043701Y0025136D01*
X0043754Y0025149D01*
X0043808Y0025159D01*
X0043862Y0025165D01*
X0043917Y0025167D01*
X0045194Y0025167D01*
X0045194Y0026700D02*
X0045194Y0022100D01*
X0046821Y0028067D02*
X0046821Y0032667D01*
X0045543Y0032667D01*
X0045488Y0032665D01*
X0045434Y0032659D01*
X0045380Y0032649D01*
X0045327Y0032636D01*
X0045275Y0032619D01*
X0045224Y0032598D01*
X0045175Y0032573D01*
X0045128Y0032545D01*
X0045083Y0032514D01*
X0045041Y0032480D01*
X0045001Y0032442D01*
X0044963Y0032402D01*
X0044929Y0032360D01*
X0044898Y0032315D01*
X0044870Y0032268D01*
X0044845Y0032219D01*
X0044824Y0032168D01*
X0044807Y0032116D01*
X0044794Y0032063D01*
X0044784Y0032009D01*
X0044778Y0031955D01*
X0044776Y0031900D01*
X0044777Y0031900D02*
X0044777Y0030367D01*
X0044776Y0030367D02*
X0044778Y0030315D01*
X0044783Y0030263D01*
X0044792Y0030211D01*
X0044804Y0030160D01*
X0044820Y0030110D01*
X0044840Y0030061D01*
X0044862Y0030014D01*
X0044888Y0029968D01*
X0044916Y0029925D01*
X0044948Y0029883D01*
X0044982Y0029843D01*
X0045019Y0029806D01*
X0045059Y0029772D01*
X0045101Y0029740D01*
X0045144Y0029712D01*
X0045190Y0029686D01*
X0045237Y0029663D01*
X0045286Y0029644D01*
X0045336Y0029628D01*
X0045387Y0029616D01*
X0045439Y0029607D01*
X0045491Y0029602D01*
X0045543Y0029600D01*
X0046821Y0029600D01*
X0048850Y0030622D02*
X0048850Y0031644D01*
X0048852Y0031707D01*
X0048858Y0031770D01*
X0048867Y0031832D01*
X0048881Y0031893D01*
X0048898Y0031954D01*
X0048919Y0032013D01*
X0048944Y0032071D01*
X0048972Y0032128D01*
X0049003Y0032182D01*
X0049038Y0032234D01*
X0049076Y0032285D01*
X0049117Y0032333D01*
X0049161Y0032378D01*
X0049207Y0032420D01*
X0049256Y0032460D01*
X0049307Y0032496D01*
X0049361Y0032529D01*
X0049416Y0032559D01*
X0049474Y0032585D01*
X0049532Y0032608D01*
X0049592Y0032627D01*
X0049653Y0032642D01*
X0049715Y0032654D01*
X0049778Y0032662D01*
X0049841Y0032666D01*
X0049903Y0032666D01*
X0049966Y0032662D01*
X0050029Y0032654D01*
X0050091Y0032642D01*
X0050152Y0032627D01*
X0050212Y0032608D01*
X0050270Y0032585D01*
X0050328Y0032559D01*
X0050383Y0032529D01*
X0050437Y0032496D01*
X0050488Y0032460D01*
X0050537Y0032420D01*
X0050583Y0032378D01*
X0050627Y0032333D01*
X0050668Y0032285D01*
X0050706Y0032234D01*
X0050741Y0032182D01*
X0050772Y0032128D01*
X0050800Y0032071D01*
X0050825Y0032013D01*
X0050846Y0031954D01*
X0050863Y0031893D01*
X0050877Y0031832D01*
X0050886Y0031770D01*
X0050892Y0031707D01*
X0050894Y0031644D01*
X0050894Y0030622D01*
X0050892Y0030559D01*
X0050886Y0030496D01*
X0050877Y0030434D01*
X0050863Y0030373D01*
X0050846Y0030312D01*
X0050825Y0030253D01*
X0050800Y0030195D01*
X0050772Y0030138D01*
X0050741Y0030084D01*
X0050706Y0030032D01*
X0050668Y0029981D01*
X0050627Y0029933D01*
X0050583Y0029888D01*
X0050537Y0029846D01*
X0050488Y0029806D01*
X0050437Y0029770D01*
X0050383Y0029737D01*
X0050328Y0029707D01*
X0050270Y0029681D01*
X0050212Y0029658D01*
X0050152Y0029639D01*
X0050091Y0029624D01*
X0050029Y0029612D01*
X0049966Y0029604D01*
X0049903Y0029600D01*
X0049841Y0029600D01*
X0049778Y0029604D01*
X0049715Y0029612D01*
X0049653Y0029624D01*
X0049592Y0029639D01*
X0049532Y0029658D01*
X0049474Y0029681D01*
X0049416Y0029707D01*
X0049361Y0029737D01*
X0049307Y0029770D01*
X0049256Y0029806D01*
X0049207Y0029846D01*
X0049161Y0029888D01*
X0049117Y0029933D01*
X0049076Y0029981D01*
X0049038Y0030032D01*
X0049003Y0030084D01*
X0048972Y0030138D01*
X0048944Y0030195D01*
X0048919Y0030253D01*
X0048898Y0030312D01*
X0048881Y0030373D01*
X0048867Y0030434D01*
X0048858Y0030496D01*
X0048852Y0030559D01*
X0048850Y0030622D01*
X0042944Y0030367D02*
X0042944Y0031644D01*
X0042944Y0031133D02*
X0040900Y0031133D01*
X0040900Y0031644D01*
X0040902Y0031707D01*
X0040908Y0031770D01*
X0040917Y0031832D01*
X0040931Y0031893D01*
X0040948Y0031954D01*
X0040969Y0032013D01*
X0040994Y0032071D01*
X0041022Y0032128D01*
X0041053Y0032182D01*
X0041088Y0032234D01*
X0041126Y0032285D01*
X0041167Y0032333D01*
X0041211Y0032378D01*
X0041257Y0032420D01*
X0041306Y0032460D01*
X0041357Y0032496D01*
X0041411Y0032529D01*
X0041466Y0032559D01*
X0041524Y0032585D01*
X0041582Y0032608D01*
X0041642Y0032627D01*
X0041703Y0032642D01*
X0041765Y0032654D01*
X0041828Y0032662D01*
X0041891Y0032666D01*
X0041953Y0032666D01*
X0042016Y0032662D01*
X0042079Y0032654D01*
X0042141Y0032642D01*
X0042202Y0032627D01*
X0042262Y0032608D01*
X0042320Y0032585D01*
X0042378Y0032559D01*
X0042433Y0032529D01*
X0042487Y0032496D01*
X0042538Y0032460D01*
X0042587Y0032420D01*
X0042633Y0032378D01*
X0042677Y0032333D01*
X0042718Y0032285D01*
X0042756Y0032234D01*
X0042791Y0032182D01*
X0042822Y0032128D01*
X0042850Y0032071D01*
X0042875Y0032013D01*
X0042896Y0031954D01*
X0042913Y0031893D01*
X0042927Y0031832D01*
X0042936Y0031770D01*
X0042942Y0031707D01*
X0042944Y0031644D01*
X0042945Y0030367D02*
X0042943Y0030312D01*
X0042937Y0030258D01*
X0042927Y0030204D01*
X0042914Y0030151D01*
X0042897Y0030099D01*
X0042876Y0030048D01*
X0042851Y0029999D01*
X0042823Y0029952D01*
X0042792Y0029907D01*
X0042758Y0029865D01*
X0042720Y0029825D01*
X0042680Y0029787D01*
X0042638Y0029753D01*
X0042593Y0029722D01*
X0042546Y0029694D01*
X0042497Y0029669D01*
X0042446Y0029648D01*
X0042394Y0029631D01*
X0042341Y0029618D01*
X0042287Y0029608D01*
X0042233Y0029602D01*
X0042178Y0029600D01*
X0040900Y0029600D01*
X0038894Y0029600D02*
X0038894Y0032667D01*
X0037617Y0032667D01*
X0037562Y0032665D01*
X0037508Y0032659D01*
X0037454Y0032649D01*
X0037401Y0032636D01*
X0037349Y0032619D01*
X0037298Y0032598D01*
X0037249Y0032573D01*
X0037202Y0032545D01*
X0037157Y0032514D01*
X0037115Y0032480D01*
X0037075Y0032442D01*
X0037037Y0032402D01*
X0037003Y0032360D01*
X0036972Y0032315D01*
X0036944Y0032268D01*
X0036919Y0032219D01*
X0036898Y0032168D01*
X0036881Y0032116D01*
X0036868Y0032063D01*
X0036858Y0032009D01*
X0036852Y0031955D01*
X0036850Y0031900D01*
X0036850Y0029600D01*
M02*
